<?xml version="1.0" standalone="no"?>
<!DOCTYPE svg PUBLIC "-//W3C//DTD SVG 20010904//EN"
 "http://www.w3.org/TR/2001/REC-SVG-20010904/DTD/svg10.dtd">
<svg version="1.0" xmlns="http://www.w3.org/2000/svg"
 width="2000.000000pt" height="1990.000000pt" viewBox="0 0 2000.000000 1990.000000"
 preserveAspectRatio="xMidYMid meet">

<g transform="translate(0.000000,1990.000000) scale(0.100000,-0.100000)"
fill="#000000" stroke="none">
<path d="M9660 19063 c-968 -42 -1847 -210 -2710 -518 -1245 -444 -2362 -1144
-3312 -2074 -1951 -1909 -2933 -4571 -2692 -7301 147 -1678 758 -3274 1769
-4625 276 -370 537 -670 874 -1005 1012 -1007 2229 -1755 3571 -2195 1728
-565 3578 -602 5337 -104 920 260 1852 700 2653 1252 1696 1169 2953 2887
3545 4844 546 1804 520 3741 -75 5523 -223 668 -532 1325 -912 1935 -795 1277
-1931 2361 -3253 3107 -1126 636 -2369 1020 -3665 1133 -347 30 -820 42 -1130
28z m-5157 -5690 c114 -753 208 -1371 207 -1375 0 -5 -441 -8 -979 -8 -924 0
-980 1 -985 18 -4 12 -262 1380 -469 2478 -2 10 104 213 126 242 7 9 210 12
951 12 l942 0 207 -1367z m4121 1340 c3 -16 73 -415 156 -888 83 -473 189
-1077 235 -1342 47 -265 85 -484 85 -487 0 -3 -670 -6 -1488 -6 l-1489 0 18
88 c18 84 110 553 390 1979 l134 683 977 0 976 0 6 -27z m3941 17 c4 -7 711
-10 2088 -10 l2082 0 97 -97 98 -98 0 -916 0 -917 -100 -96 -101 -96 -1719 0
-1720 0 0 -920 0 -920 1593 0 1592 0 103 -96 102 -96 0 -912 0 -911 -98 -98
-98 -97 -1597 0 -1597 0 0 -955 0 -955 1842 0 1842 0 98 -97 98 -98 0 -910 0
-911 -99 -97 -98 -97 -3116 0 c-2086 0 -3118 3 -3122 10 -4 7 -339 10 -992 10
-542 0 -987 1 -989 3 -4 3 -24 112 -333 1777 -105 564 -193 1033 -195 1042 -4
17 74 18 1538 18 l1543 0 -33 -172 c-18 -95 -114 -601 -214 -1123 l-180 -950
0 -143 0 -142 2980 0 2980 0 -2 775 -3 775 -1762 0 c-1733 0 -1763 0 -1848 20
-100 23 -155 58 -203 126 -63 88 -62 75 -62 1140 0 870 2 971 17 1032 32 129
107 199 248 232 85 20 116 20 1603 20 l1517 0 3 775 2 775 -1532 0 c-1475 0
-1536 1 -1606 19 -87 23 -143 59 -188 121 -65 90 -64 68 -64 1110 0 1042 -1
1020 64 1110 45 62 101 98 188 121 70 18 133 19 1731 19 l1657 0 0 780 0 780
-1962 0 -1963 0 -79 -418 c-43 -229 -89 -471 -102 -537 -12 -66 -75 -394 -139
-730 -63 -335 -120 -634 -126 -662 l-10 -53 -911 0 -910 0 6 28 c3 15 93 619
201 1342 107 723 197 1330 200 1348 l6 32 874 0 c572 0 876 -3 880 -10z
m-7795 -3106 c0 -8 46 -311 91 -598 16 -104 29 -195 29 -203 0 -11 -163 -13
-960 -13 -528 0 -960 3 -960 6 0 3 -31 171 -70 372 -38 202 -72 384 -76 405
l-6 37 976 0 c537 0 976 -3 976 -6z m4464 -386 c37 -216 70 -401 72 -410 5
-17 -81 -18 -1706 -18 -1625 0 -1711 1 -1706 18 5 17 143 710 153 770 l6 32
1556 0 1557 0 68 -392z m2912 365 c-3 -16 -38 -194 -76 -398 -38 -203 -72
-376 -75 -382 -3 -10 -190 -13 -885 -13 -876 0 -880 0 -880 20 0 11 9 75 19
143 11 67 36 237 56 377 20 140 38 261 41 268 3 9 192 12 904 12 l902 0 -6
-27z m-8033 -1308 c4 -22 26 -125 48 -230 22 -104 56 -264 75 -355 20 -91 42
-200 51 -243 9 -42 17 -76 19 -74 3 3 162 578 233 842 l27 100 182 3 c141 2
183 0 186 -10 3 -7 23 -89 45 -183 98 -413 172 -711 179 -729 6 -14 16 17 35
110 14 71 48 237 76 369 27 132 57 276 66 320 8 44 18 90 20 103 5 22 7 22
169 22 122 0 166 -3 174 -13 8 -9 5 -37 -13 -102 -24 -92 -181 -689 -281
-1070 -31 -115 -57 -216 -60 -223 -3 -10 -46 -12 -191 -10 l-187 3 -18 70
c-46 175 -161 620 -185 715 -14 58 -29 108 -32 112 -4 4 -61 -197 -126 -447
l-120 -455 -195 0 -195 0 -44 168 c-24 92 -61 232 -82 312 -263 995 -244 920
-228 931 8 5 93 8 189 6 l174 -2 9 -40z m3262 -100 l0 -140 -240 -5 -240 -5
-3 -132 -3 -133 225 0 c195 0 225 -2 230 -16 12 -30 7 -249 -6 -262 -9 -9 -74
-12 -230 -12 l-218 0 0 -140 0 -140 258 -2 257 -3 0 -140 0 -140 -425 0 -425
0 -3 695 c-1 382 0 701 3 708 3 10 91 12 412 10 l408 -3 0 -140z m1750 0 l0
-140 -240 -5 -240 -5 -3 -132 -3 -133 219 0 c175 0 222 -3 231 -14 8 -9 11
-56 9 -142 l-3 -129 -225 -5 -225 -5 0 -135 0 -135 255 -5 255 -5 0 -140 0
-140 -425 0 -425 0 -3 695 c-1 382 0 701 3 708 3 10 91 12 412 10 l408 -3 0
-140z m1620 128 c140 -28 247 -98 290 -190 27 -55 32 -177 10 -242 -19 -58
-94 -146 -149 -176 -20 -11 -36 -22 -36 -25 0 -3 21 -13 46 -24 161 -66 242
-231 200 -409 -9 -37 -25 -85 -36 -107 -29 -57 -111 -133 -182 -168 -109 -53
-194 -63 -533 -60 l-300 3 -3 695 c-1 382 0 701 3 708 7 19 592 15 690 -5z
m-3685 -1885 c0 -7 -37 -210 -82 -450 l-83 -438 -1652 0 c-1564 0 -1652 1
-1657 18 -5 17 -166 866 -166 876 0 3 819 6 1820 6 1449 0 1820 -3 1820 -12z
m4480 0 c1 -7 -36 -210 -82 -451 l-82 -437 -1611 2 -1610 3 -76 410 c-43 226
-80 427 -83 448 l-6 37 1775 0 c1413 0 1775 -3 1775 -12z m-4720 -1262 c0 -8
-61 -333 -135 -722 -75 -390 -194 -1017 -266 -1394 -71 -377 -132 -692 -134
-700 -4 -13 -128 -15 -1047 -13 -574 2 -1044 6 -1045 10 -5 16 -533 2813 -533
2823 0 7 514 10 1580 10 1344 0 1580 -2 1580 -14z"/>
<path d="M10392 9928 l3 -143 90 0 c147 1 210 46 210 152 0 49 -3 58 -31 83
-38 33 -106 50 -205 50 l-70 0 3 -142z"/>
<path d="M10390 9349 l0 -161 118 4 c101 3 123 7 160 28 56 31 82 74 82 134 0
54 -12 81 -49 114 -38 33 -83 42 -203 42 l-108 0 0 -161z"/>
</g>
</svg>
