<?xml version="1.0" standalone="no"?>
<!DOCTYPE svg PUBLIC "-//W3C//DTD SVG 20010904//EN"
 "http://www.w3.org/TR/2001/REC-SVG-20010904/DTD/svg10.dtd">
<svg version="1.0" xmlns="http://www.w3.org/2000/svg"
 width="4500.000000pt" height="1500.000000pt" viewBox="0 0 4500.000000 1500.000000"
 preserveAspectRatio="xMidYMid meet">

<g transform="translate(0.000000,1500.000000) scale(0.100000,-0.100000)"
fill="#000000" stroke="none">
<path d="M4910 14750 c-50 -14 -90 -40 -90 -60 0 -25 19 -25 68 0 22 11 46 18
54 15 29 -11 191 -303 186 -336 -2 -15 -34 -40 -111 -85 l-107 -63 -26 39
c-15 22 -33 40 -40 40 -18 0 -18 -41 1 -66 21 -27 18 -39 -10 -52 -69 -32 -90
-14 -182 151 -74 131 -79 162 -31 202 38 32 35 34 100 -83 41 -74 64 -95 78
-72 4 7 -12 47 -41 99 -27 47 -49 92 -49 98 0 7 9 18 20 25 23 15 26 36 7 44
-20 7 -137 -61 -169 -98 -48 -55 -35 -103 77 -293 80 -136 105 -151 197 -119
l46 15 34 -36 c27 -30 43 -38 80 -42 63 -7 113 11 146 55 23 30 27 44 25 91
-3 74 -3 118 -1 161 1 27 -17 68 -81 180 -107 189 -123 206 -181 190z m218
-517 c5 -64 -26 -105 -88 -116 -33 -6 -85 16 -99 42 -10 18 -3 25 71 70 46 27
90 49 98 48 10 -2 16 -16 18 -44z"/>
<path d="M28921 14619 c-41 -16 -131 -99 -131 -120 0 -10 9 -28 20 -39 19 -19
19 -20 -30 -125 -110 -235 -119 -260 -103 -300 7 -20 174 -132 209 -141 47
-12 72 7 200 150 127 143 130 145 164 140 42 -7 70 17 73 62 2 23 -2 29 -18
29 -13 0 -21 -8 -23 -22 -2 -13 -9 -23 -17 -23 -16 0 -425 258 -425 269 0 18
99 81 127 81 31 0 258 -136 318 -190 30 -27 55 -30 55 -6 0 21 -62 71 -180
146 -160 101 -185 111 -239 89z m-2 -231 c20 -12 87 -55 150 -96 l114 -73 -25
-25 c-22 -22 -27 -24 -52 -13 -39 18 -57 -3 -29 -33 l22 -23 -35 -38 c-20 -21
-41 -37 -47 -35 -7 2 -63 35 -124 73 -71 44 -112 76 -113 87 0 27 32 88 47 88
8 0 41 -18 74 -41 58 -39 88 -46 96 -23 2 6 -32 35 -77 63 -44 28 -80 54 -80
56 0 14 25 55 33 55 5 0 26 -10 46 -22z m-11 -325 c83 -53 83 -53 65 -76 -9
-13 -27 -31 -40 -41 -24 -17 -25 -17 -96 26 -111 67 -127 83 -117 117 4 15 13
38 19 50 l12 22 37 -23 c20 -12 74 -46 120 -75z"/>
<path d="M26095 14516 c-227 -55 -377 -279 -344 -513 37 -264 306 -445 562
-378 212 55 347 228 347 445 0 93 -24 178 -71 251 -27 43 -34 48 -39 33 -4
-11 -22 -103 -40 -206 l-34 -188 -74 0 -74 0 6 33 c3 17 8 51 12 75 4 23 8 42
9 42 2 0 28 -10 59 -21 31 -12 58 -20 60 -18 8 8 55 282 50 291 -3 4 -20 8
-38 8 l-33 0 -12 -72 c-20 -118 -15 -111 -79 -104 -31 4 -60 10 -64 14 -4 4 0
42 8 86 8 43 14 79 12 81 -2 1 -19 5 -39 9 l-36 6 -13 -80 c-7 -44 -15 -82
-19 -84 -9 -6 -104 13 -113 22 -5 5 -1 46 7 91 9 46 15 84 13 86 -2 1 -19 5
-39 8 l-36 5 -17 -95 c-9 -53 -15 -97 -14 -99 2 -1 26 -11 53 -22 49 -20 50
-21 49 -61 0 -23 -3 -44 -7 -47 -3 -3 -33 4 -66 17 -71 25 -69 17 -41 173 29
158 28 156 86 145 26 -5 49 -11 51 -13 2 -2 -3 -41 -12 -87 -8 -45 -12 -86 -8
-90 5 -3 24 -9 45 -12 40 -6 40 -6 53 85 10 68 21 78 73 69 23 -5 45 -11 48
-14 3 -2 -2 -40 -10 -83 -8 -43 -13 -81 -11 -83 2 -2 24 -6 48 -8 l44 -5 13
78 c18 111 21 114 71 103 23 -5 44 -8 46 -5 7 6 -78 72 -124 95 -96 48 -215
62 -318 37z m73 -334 c18 -12 5 -92 -15 -92 -19 0 -26 24 -19 65 7 36 12 40
34 27z m159 -60 c9 -6 8 -25 -2 -81 -8 -41 -17 -76 -19 -78 -2 -3 -13 -3 -23
-1 -18 3 -18 7 -4 86 13 78 21 91 48 74z m-67 -33 c0 -24 -3 -30 -16 -25 -9 3
-24 6 -35 6 -12 0 -19 7 -19 18 0 25 9 32 42 32 25 0 28 -4 28 -31z m-175
-115 c-7 -36 -15 -67 -18 -70 -3 -3 -33 4 -66 17 -64 23 -67 27 -55 88 l7 31
72 0 72 0 -12 -66z m59 -6 c-8 -40 -14 -76 -14 -80 0 -5 -9 -8 -20 -8 -23 0
-24 10 -8 96 10 56 14 64 34 64 22 0 22 0 8 -72z m58 43 c8 12 10 12 15 0 4
-11 7 -11 14 0 10 17 23 5 16 -16 -7 -16 -44 -20 -65 -7 -8 6 -10 16 -5 28 7
19 8 19 11 0 3 -15 6 -16 14 -5z m-22 -83 c0 -9 4 -8 10 2 8 13 10 12 10 -2 0
-21 16 -24 23 -5 3 6 6 2 6 -10 1 -24 -8 -27 -46 -17 -23 6 -33 44 -13 44 6 0
10 -6 10 -12z m103 -30 c13 -11 15 -21 8 -53 -5 -22 -12 -57 -15 -77 -6 -32
-11 -38 -32 -38 -19 0 -24 4 -20 18 2 9 10 50 17 90 7 39 15 72 19 72 3 0 14
-6 23 -12z m110 -40 l58 -23 -6 -45 c-4 -25 -9 -48 -12 -52 -7 -13 -143 -9
-143 3 0 36 25 139 34 139 6 0 37 -10 69 -22z m-183 -38 c0 -6 -8 -10 -17 -10
-17 -1 -17 -2 1 -15 10 -7 15 -18 11 -24 -8 -14 -75 -14 -75 -1 0 6 10 10 23
10 20 1 20 2 5 11 -25 14 -22 29 5 29 20 1 20 2 5 11 -31 17 -19 30 12 14 17
-9 30 -20 30 -25z m-157 3 c2 -5 0 -27 -5 -50 l-9 -41 -59 -7 c-32 -4 -64 -4
-70 0 -10 6 -6 77 7 98 2 4 33 7 68 7 35 0 66 -3 68 -7z m62 -20 c-14 -69 -16
-73 -36 -73 -19 0 -21 4 -15 31 3 17 6 38 6 45 0 8 10 14 24 14 18 0 23 -5 21
-17z"/>
<path d="M26235 14090 c3 -5 8 -10 11 -10 2 0 4 5 4 10 0 6 -5 10 -11 10 -5 0
-7 -4 -4 -10z"/>
<path d="M4405 14501 c-6 -11 295 -562 325 -595 18 -19 40 -15 40 7 -1 23
-328 592 -343 595 -8 2 -18 -2 -22 -7z"/>
<path d="M9122 14259 c-32 -12 -22 -33 19 -39 30 -4 34 -8 31 -30 -14 -97 -83
-465 -90 -472 -12 -12 -112 50 -124 78 -9 19 -7 54 11 162 13 75 31 160 40
189 10 29 14 58 10 64 -11 18 -38 3 -50 -28 -11 -30 -54 -257 -64 -338 -9 -71
14 -103 105 -149 79 -39 102 -37 120 10 l10 25 201 -6 200 -5 28 27 c22 23 31
46 44 119 21 112 21 153 1 179 -10 13 -77 40 -202 81 -183 59 -187 61 -190 90
-5 48 -45 66 -100 43z m127 -130 c28 -10 32 -15 29 -43 -2 -25 1 -31 17 -31
13 0 21 8 23 23 4 26 7 26 67 10 37 -10 45 -16 45 -36 0 -25 -37 -248 -45
-269 -3 -8 -24 -13 -60 -13 -63 0 -61 -5 -40 100 13 68 13 76 -2 87 -24 18
-30 9 -42 -64 -22 -130 -19 -124 -57 -121 -19 1 -34 7 -34 13 0 23 61 355 65
355 1 0 16 -5 34 -11z m294 -95 c52 -27 51 -19 21 -174 -8 -41 -20 -78 -27
-82 -6 -4 -34 -8 -60 -8 -41 0 -48 3 -44 18 3 9 15 72 27 140 24 132 26 135
83 106z"/>
<path d="M15057 13710 c29 -111 63 -225 74 -255 62 -166 258 -213 392 -95 140
124 77 350 -97 350 -97 0 -166 -57 -166 -136 0 -115 91 -165 166 -90 41 41 42
48 9 66 -23 12 -28 11 -50 -10 -20 -19 -30 -22 -43 -14 -26 17 -25 48 2 81 45
53 118 47 164 -12 43 -54 25 -134 -42 -193 -61 -54 -142 -55 -213 -3 -108 78
-103 244 12 350 119 109 317 64 397 -93 32 -63 36 -167 9 -257 l-23 -72 29
-23 c15 -13 45 -36 66 -50 l38 -27 22 22 22 22 -47 42 -47 42 16 70 c41 190
-21 329 -187 419 -47 26 -68 30 -184 37 -72 5 -172 13 -223 19 -51 5 -105 10
-121 10 l-29 0 54 -200z m119 120 c24 0 44 -4 44 -9 0 -12 -77 -101 -87 -102
-8 0 -32 83 -33 110 0 8 6 11 16 7 9 -3 36 -6 60 -6z"/>
<path d="M43533 13780 c-13 -6 -23 -18 -23 -30 0 -22 20 -26 50 -10 10 6 21 6
24 1 3 -4 17 -93 31 -197 14 -104 30 -214 34 -244 5 -30 6 -58 2 -62 -7 -9
-106 13 -138 30 -12 7 -24 20 -27 29 -10 31 -46 314 -46 359 0 33 -4 44 -15
44 -34 0 -37 -49 -15 -210 26 -190 33 -220 64 -249 26 -24 170 -59 199 -48 10
4 20 20 24 38 7 36 2 34 208 89 186 50 212 61 221 97 9 33 -13 207 -31 250
-18 42 -55 52 -215 54 -224 4 -238 7 -255 40 -16 31 -47 37 -92 19z m191 -130
c4 -21 11 -30 26 -30 16 0 20 7 20 30 0 30 1 30 54 30 30 0 57 -4 60 -8 2 -4
12 -59 20 -122 9 -63 19 -127 22 -142 6 -31 -11 -44 -74 -54 l-40 -6 -13 87
c-8 55 -18 89 -26 92 -28 11 -32 -12 -19 -100 14 -93 12 -98 -32 -111 -14 -5
-24 -3 -27 6 -9 24 -51 348 -46 353 2 3 19 5 36 5 28 0 33 -4 39 -30z m324 8
c12 -15 32 -139 32 -198 0 -43 -12 -53 -81 -67 l-26 -5 -12 99 c-7 54 -16 115
-21 135 -4 20 -5 39 -2 43 11 10 100 5 110 -7z"/>
<path d="M34525 13766 c-5 -3 -26 -7 -46 -10 -47 -8 -126 -77 -150 -131 -42
-93 -12 -228 66 -292 68 -56 149 -64 225 -21 116 65 118 246 4 294 -19 8 -45
14 -59 14 -93 0 -136 -108 -69 -171 l24 -23 22 21 c20 21 21 23 4 48 -23 35
-14 55 23 55 38 0 71 -40 71 -86 0 -44 -49 -101 -95 -110 -65 -12 -144 48
-165 127 -15 56 -3 106 38 151 47 52 81 68 144 68 129 -1 240 -114 241 -245 0
-97 -58 -186 -151 -232 -104 -51 -223 -34 -337 48 l-45 33 -57 -40 c-73 -52
-83 -68 -60 -91 19 -19 21 -18 94 27 20 13 29 10 95 -22 86 -43 172 -62 231
-53 133 22 256 128 293 253 9 32 45 129 80 216 35 88 63 161 61 162 -4 4 -472
14 -482 10z m342 -76 l43 0 -21 -52 c-11 -29 -23 -56 -25 -60 -5 -8 -84 104
-84 119 0 3 10 3 23 -1 12 -3 41 -6 64 -6z"/>
<path d="M20400 13690 c-11 -11 -20 -28 -20 -38 0 -26 32 -52 63 -52 15 0 27
-1 27 -2 -1 -25 -32 -113 -43 -121 -16 -13 -37 -90 -37 -137 0 -74 142 -267
288 -393 73 -63 94 -67 125 -25 l19 26 -27 36 c-15 20 -26 38 -24 40 2 3 22
-4 43 -15 22 -10 44 -19 50 -19 14 0 236 222 236 236 0 6 -9 28 -19 50 -11 21
-18 41 -16 43 2 2 16 -6 32 -16 15 -11 33 -23 39 -26 15 -9 64 30 64 50 0 22
-92 133 -164 196 -121 107 -234 177 -286 177 -47 0 -124 -21 -137 -37 -14 -18
-120 -46 -136 -36 -6 4 -23 7 -37 7 -36 1 -36 41 0 42 41 2 43 3 30 19 -17 21
-46 19 -70 -5z m473 -74 c28 -19 68 -48 87 -65 l35 -30 -27 -27 -27 -28 -48
45 c-26 24 -69 62 -95 83 -33 26 -48 46 -48 62 0 24 1 24 35 10 19 -8 59 -31
88 -50z m-145 21 c7 -21 36 -53 75 -84 34 -28 74 -64 89 -80 l28 -29 -36 -35
-35 -34 -50 55 c-58 65 -149 196 -149 215 0 12 16 18 55 24 6 0 16 -14 23 -32z
m-183 -87 c-39 -39 -71 -67 -72 -63 -2 5 3 30 10 58 12 47 15 50 58 61 75 20
76 16 4 -56z m48 -52 c-57 -57 -69 -65 -86 -56 -18 9 -13 16 54 84 67 67 75
73 87 57 11 -15 4 -26 -55 -85z m124 -10 c57 -76 179 -195 229 -224 24 -14 44
-29 44 -32 0 -9 -123 -132 -131 -132 -4 0 -19 20 -34 45 -31 53 -142 167 -221
226 l-55 42 63 64 c34 34 63 63 64 63 1 0 19 -24 41 -52z m368 -49 l57 -62
-21 -20 c-20 -20 -21 -20 -58 -3 -21 10 -53 36 -72 58 l-34 39 23 24 c13 14
29 25 36 25 6 0 37 -28 69 -61z m-553 -49 c40 -27 98 -72 128 -99 l55 -50 -34
-35 -35 -36 -32 31 c-17 17 -53 57 -80 90 -29 35 -63 64 -82 71 -26 10 -32 17
-28 33 3 11 6 26 6 33 0 23 28 12 102 -38z m489 -59 c27 -41 28 -46 13 -62
-15 -17 -18 -16 -62 11 -26 16 -60 40 -77 54 l-30 24 34 36 35 36 29 -28 c16
-15 43 -47 58 -71z m139 -16 c-9 -11 -16 -13 -23 -6 -7 7 -6 15 3 26 9 11 16
13 23 6 7 -7 6 -15 -3 -26z m-687 2 c12 -13 51 -56 86 -96 l64 -73 -27 -26
-27 -27 -30 35 c-42 49 -97 134 -115 175 -14 33 -13 35 6 35 12 0 31 -10 43
-23z m495 -194 c-68 -68 -110 -103 -118 -98 -8 5 23 43 96 116 73 73 112 105
118 99 7 -7 -25 -45 -96 -117z m-176 21 c43 -63 46 -70 31 -86 -14 -15 -19
-16 -42 -4 -14 8 -48 33 -74 56 l-48 43 32 34 c18 18 38 32 43 30 6 -2 32 -35
58 -73z m-107 -52 c22 -20 47 -52 54 -70 13 -30 12 -35 -6 -54 l-20 -20 -62
57 c-33 32 -61 62 -61 68 0 11 40 57 49 57 3 0 24 -17 46 -38z m99 -141 c8
-12 -21 -34 -34 -26 -8 5 -8 11 1 21 13 16 25 18 33 5z"/>
<path d="M20920 13360 c0 -5 14 -10 30 -10 17 0 30 5 30 10 0 6 -13 10 -30 10
-16 0 -30 -4 -30 -10z"/>
<path d="M20720 13140 c0 -16 5 -30 10 -30 6 0 10 14 10 30 0 17 -4 30 -10 30
-5 0 -10 -13 -10 -30z"/>
<path d="M40030 13520 c-199 -63 -223 -87 -186 -190 14 -39 53 -52 48 -15 -13
89 -13 103 -3 109 29 18 339 106 357 101 17 -4 29 -27 59 -122 20 -65 38 -122
39 -126 0 -5 -16 -14 -37 -22 -47 -16 -51 -20 -43 -41 5 -12 13 -14 34 -9 51
14 65 11 74 -18 15 -44 -6 -82 -55 -100 -73 -28 -249 -77 -273 -77 -24 0 -74
55 -74 81 0 10 34 26 105 47 73 23 105 37 105 47 0 27 -24 26 -125 -5 -99 -31
-114 -30 -115 6 0 18 -27 24 -39 10 -16 -19 34 -158 70 -197 28 -30 32 -31 92
-27 94 7 293 73 330 109 28 29 29 33 25 94 l-6 64 37 19 c98 51 99 194 1 260
-27 18 -46 23 -86 21 -34 -2 -58 3 -75 14 -37 26 -92 19 -259 -33z m385 -36
c72 -34 84 -128 24 -178 -17 -15 -34 -24 -39 -21 -13 8 -72 193 -65 205 9 15
42 12 80 -6z"/>
<path d="M2165 13130 c-156 -27 -271 -114 -342 -258 -38 -75 -38 -77 -38 -197
0 -119 0 -122 37 -196 47 -95 130 -177 225 -222 65 -31 74 -32 189 -32 118 0
121 0 195 37 77 38 158 109 192 167 l19 32 -24 -6 c-13 -3 -105 -21 -206 -39
-207 -37 -184 -42 -221 52 l-21 52 23 4 c48 11 128 26 132 26 3 0 5 -30 5 -66
0 -64 1 -66 23 -61 12 3 76 15 142 27 66 12 122 23 124 25 2 2 0 20 -3 40 -5
27 -11 35 -24 31 -59 -16 -164 -28 -172 -20 -6 6 -11 35 -13 64 l-2 55 78 14
79 15 -7 35 c-4 20 -8 37 -9 39 -2 1 -36 -4 -77 -12 -88 -17 -96 -13 -101 59
l-3 50 80 17 c44 9 82 17 85 17 4 1 4 17 2 37 l-4 36 -52 -7 c-28 -3 -72 -11
-98 -16 l-47 -10 -3 -62 -3 -61 -39 -8 c-21 -5 -41 -6 -44 -4 -2 3 -7 34 -9
70 -6 75 -25 64 157 96 154 27 147 28 158 -27 6 -26 9 -50 6 -54 -2 -4 -34
-12 -71 -18 -108 -19 -105 -17 -98 -64 4 -23 8 -43 9 -44 1 -2 38 4 81 12 43
9 82 12 86 8 4 -5 10 -29 14 -55 8 -53 18 -46 -99 -69 l-58 -11 5 -40 c3 -22
8 -42 11 -46 4 -3 45 2 93 11 47 9 89 14 94 11 4 -2 11 -26 15 -52 l7 -47 19
41 c39 91 40 236 2 336 -26 65 -81 144 -128 182 -103 85 -250 127 -371 106z
m-18 -291 c13 -34 20 -65 18 -69 -3 -4 -26 -11 -52 -15 -27 -3 -58 -9 -71 -12
-23 -5 -23 -4 -20 68 l3 74 35 6 c64 12 64 12 87 -52z m-218 -41 c12 -34 18
-65 14 -69 -5 -4 -26 -10 -49 -14 l-41 -6 -22 61 c-24 65 -22 76 19 83 56 10
58 9 79 -55z m401 -37 c0 -24 -4 -26 -52 -35 -34 -6 -38 -5 -38 13 0 14 9 23
28 27 15 3 32 7 37 9 21 7 25 4 25 -14z m-142 -33 c3 -16 -15 -22 -130 -43
-34 -7 -38 -5 -38 14 0 13 8 22 23 26 85 20 104 23 122 22 11 -1 21 -9 23 -19z
m-221 -33 c8 -21 1 -26 -47 -35 -34 -6 -42 -4 -51 11 -11 21 -6 24 41 32 46 8
51 7 57 -8z m324 -22 c11 -29 5 -40 -26 -45 -17 -2 -21 3 -23 35 -3 32 0 37
18 37 13 0 24 -10 31 -27z m-110 0 c-11 -5 -11 -7 0 -14 12 -8 11 -11 -1 -19
-13 -8 -12 -10 3 -10 9 0 17 -4 17 -10 0 -16 -37 -11 -44 6 -13 34 -7 54 17
53 12 0 16 -3 8 -6z m-81 -12 c0 -5 -6 -12 -12 -14 -8 -3 -5 -6 6 -6 15 -1 16
-4 6 -16 -10 -12 -9 -15 6 -15 16 0 17 -2 4 -10 -8 -5 -20 -10 -26 -10 -13 0
-27 57 -18 71 7 12 34 12 34 0z m-110 -33 l9 -23 0 23 c1 12 6 22 11 22 13 0
13 -41 0 -60 -9 -13 -12 -12 -25 4 -15 19 -15 19 -15 -2 0 -31 -17 -27 -35 9
-19 36 -12 52 10 23 14 -18 14 -18 15 4 0 12 5 22 10 22 6 0 15 -10 20 -22z
m338 -40 c-2 -19 -13 -24 -68 -34 -87 -17 -97 -17 -104 2 -9 23 -4 26 67 40
96 19 109 18 105 -8z m-228 -42 c0 -21 -6 -24 -69 -35 -92 -15 -98 -14 -104 9
-4 16 3 20 47 29 28 5 60 12 71 14 45 10 55 7 55 -17z m0 -110 l0 -74 -47 -10
c-26 -6 -50 -9 -54 -6 -10 6 -52 124 -47 130 3 3 36 11 74 18 38 8 70 15 72
15 1 1 2 -32 2 -73z"/>
<path d="M40290 12974 c-173 -53 -319 -100 -325 -105 -6 -6 -4 -14 5 -23 13
-12 60 0 340 84 274 82 325 101 325 116 0 10 -7 20 -15 21 -8 1 -157 -41 -330
-93z"/>
<path d="M37471 12976 c-22 -26 -9 -69 26 -87 l31 -16 -30 -51 c-16 -29 -36
-52 -44 -52 -18 0 -74 -111 -74 -148 0 -58 32 -152 100 -287 97 -195 141 -240
194 -200 17 13 18 19 8 53 -7 22 -12 42 -12 46 0 10 42 -17 60 -38 16 -19 21
-17 164 65 l147 84 -6 55 -6 55 34 -39 34 -38 31 16 c41 21 41 42 1 126 -69
148 -231 356 -294 380 -34 13 -155 13 -155 0 0 -6 -28 -10 -65 -10 -37 0 -65
4 -65 10 0 6 -11 10 -24 10 -13 0 -29 7 -36 16 -11 12 -11 18 2 30 13 13 19
14 36 3 25 -16 40 -5 22 16 -16 19 -64 20 -79 1z m319 -128 c0 -22 19 -60 65
-128 36 -53 65 -99 65 -102 0 -8 -68 -48 -80 -48 -18 0 -103 193 -124 283 -6
26 -5 27 34 27 38 0 40 -1 40 -32z m158 -92 c34 -42 62 -81 62 -86 0 -5 -14
-17 -32 -26 -28 -15 -32 -15 -40 0 -5 8 -36 55 -68 103 -57 83 -69 111 -53
126 11 12 66 -37 131 -117z m-278 100 c0 -7 -163 -96 -168 -92 -2 3 8 26 22
51 l27 45 59 0 c33 0 60 -2 60 -4z m28 -47 c-2 -15 -28 -36 -81 -66 -63 -37
-80 -43 -92 -33 -18 15 -19 30 -2 31 6 0 44 20 82 44 80 50 98 54 93 24z m37
-96 c28 -79 114 -227 161 -281 l44 -50 -82 -46 c-45 -26 -84 -43 -88 -39 -4 5
-12 28 -19 53 -16 57 -78 171 -136 249 -25 34 -46 66 -48 71 -2 10 118 88 139
89 6 1 19 -20 29 -46z m-129 -148 c30 -44 54 -86 54 -92 0 -7 -18 -22 -40 -33
l-40 -21 -52 107 c-31 63 -63 115 -79 127 -27 19 -27 20 -11 54 l16 33 49 -47
c26 -27 73 -84 103 -128z m-168 66 c7 -4 37 -57 66 -118 l53 -110 -33 -18
c-19 -10 -36 -16 -37 -14 -8 9 -46 108 -60 154 -32 105 -29 132 11 106z m640
-69 l42 -79 -26 -12 c-23 -10 -30 -8 -59 16 -18 16 -41 46 -51 68 -9 22 -19
43 -21 46 -3 5 53 37 68 38 3 1 24 -34 47 -77z m-98 -61 c24 -63 25 -87 3 -95
-19 -8 -61 29 -104 91 l-29 42 42 25 c40 24 43 24 55 7 7 -10 21 -42 33 -70z
m155 -60 c3 -6 -3 -15 -14 -21 -21 -11 -37 2 -26 20 8 13 32 13 40 1z m-426
-53 c31 -79 36 -112 17 -128 -14 -11 -20 -10 -41 10 -25 23 -85 111 -85 123 0
6 69 46 81 47 4 0 16 -24 28 -52z m-107 -54 c16 -25 31 -62 34 -84 5 -32 3
-40 -15 -50 -12 -6 -25 -8 -30 -5 -5 3 -27 36 -49 75 l-40 69 31 20 c18 12 34
21 37 21 3 -1 17 -21 32 -46z m406 34 c-6 -16 -250 -158 -261 -151 -17 10 2
26 118 93 120 69 150 81 143 58z m-348 -197 c0 -5 -6 -14 -14 -20 -16 -13 -32
2 -21 19 8 12 35 13 35 1z"/>
<path d="M37900 12526 c0 -17 41 -29 54 -16 6 6 -1 13 -18 20 -35 13 -36 13
-36 -4z"/>
<path d="M37650 12374 c-13 -33 -13 -34 4 -34 12 0 25 28 26 53 0 18 -21 5
-30 -19z"/>
<path d="M8635 12619 c-4 -6 -4 -34 0 -64 l6 -53 -61 -48 c-122 -95 -174 -215
-151 -342 21 -114 36 -136 227 -329 l179 -182 74 157 c124 261 141 303 141
353 0 143 -104 249 -244 249 -37 0 -77 -8 -101 -19 -82 -37 -134 -129 -120
-213 14 -81 120 -159 199 -144 60 11 116 72 116 126 0 60 -60 108 -119 95 -37
-8 -45 -18 -37 -51 6 -21 11 -25 34 -20 37 8 56 -6 49 -36 -6 -24 -43 -48 -73
-48 -32 0 -76 33 -91 67 -19 47 -10 93 25 125 41 39 65 48 125 48 181 0 231
-243 72 -348 -114 -75 -244 -60 -329 39 -122 143 -63 364 124 459 40 21 42 23
35 58 -22 123 -26 132 -50 132 -13 0 -27 -5 -30 -11z m208 -834 c-15 -30 -30
-55 -33 -55 -3 0 -25 20 -49 44 l-44 44 49 7 c27 4 54 8 59 10 6 2 18 4 27 4
16 1 15 -6 -9 -54z"/>
<path d="M12906 12120 c-219 -63 -238 -81 -204 -192 9 -31 16 -38 32 -36 15 2
20 9 18 23 -2 11 -5 39 -9 61 l-5 42 56 21 c31 11 61 21 67 21 5 0 55 14 111
30 116 35 144 37 157 13 8 -16 71 -224 71 -235 0 -3 -18 -10 -39 -17 -42 -12
-61 -38 -35 -48 9 -3 31 -1 50 5 33 10 36 9 45 -14 26 -71 2 -95 -141 -137
-146 -44 -185 -51 -210 -37 -19 10 -50 59 -50 78 0 8 104 42 178 57 44 9 46
51 1 47 -7 -1 -158 -41 -179 -47 -11 -3 -20 5 -27 26 -13 32 -35 35 -41 5 -7
-33 39 -158 68 -188 23 -23 37 -28 77 -28 58 0 283 62 329 91 42 26 59 74 45
125 -12 43 -13 40 31 62 75 38 102 143 55 212 -33 49 -78 73 -143 73 -30 0
-54 3 -54 7 0 9 -47 30 -68 30 -9 -1 -93 -23 -186 -50z m373 -45 c42 -21 65
-77 51 -120 -11 -34 -52 -75 -74 -75 -12 0 -68 188 -60 202 8 13 52 9 83 -7z"/>
<path d="M28828 11849 c-35 -20 -11 -99 30 -99 18 0 15 -8 -23 -61 -20 -26
-41 -46 -48 -44 -7 2 -29 -21 -51 -53 -34 -51 -39 -63 -38 -115 2 -112 95
-391 155 -464 38 -45 37 -45 71 -25 21 13 30 25 28 38 -2 10 -6 32 -9 48 l-6
29 26 -19 c15 -10 29 -27 32 -36 4 -10 12 -18 19 -18 16 0 284 116 301 130 8
6 10 28 7 63 l-4 52 26 -34 c14 -19 26 -39 26 -43 0 -12 25 -10 55 4 25 11 26
15 20 57 -16 106 -130 330 -217 426 -45 49 -51 53 -119 64 -53 8 -74 9 -79 1
-10 -16 -130 -1 -137 16 -3 8 -15 14 -28 14 -23 0 -40 24 -29 41 8 13 38 11
52 -3 16 -16 29 -1 16 20 -13 20 -52 26 -76 11z m175 -139 c4 -4 -31 -23 -79
-44 -48 -20 -89 -35 -90 -33 -2 2 11 24 28 49 l33 47 50 -6 c27 -3 54 -9 58
-13z m96 14 c26 -6 30 -10 25 -30 -4 -16 11 -55 50 -133 31 -60 56 -114 56
-119 0 -6 -12 -15 -27 -20 -16 -5 -35 -13 -45 -17 -13 -5 -21 6 -38 51 -41
112 -78 274 -62 274 5 0 24 -3 41 -6z m82 -26 c43 -36 154 -202 144 -218 -3
-4 -18 -13 -35 -18 l-29 -11 -56 106 c-64 123 -74 182 -24 141z m-149 -28 c0
-5 1 -15 2 -21 1 -10 -146 -79 -170 -79 -6 0 -15 7 -18 15 -4 12 10 23 57 43
34 15 73 33 87 39 32 15 40 15 42 3z m-157 -175 c62 -100 91 -163 79 -174 -5
-6 -25 -17 -46 -25 l-36 -16 -43 121 c-30 86 -49 125 -66 136 l-23 15 21 30
21 29 25 -23 c14 -13 44 -54 68 -93z m180 78 c12 -64 91 -250 129 -303 20 -27
36 -54 36 -59 0 -7 -127 -65 -160 -73 -8 -2 -17 19 -25 58 -19 89 -76 218
-143 322 -14 22 -13 23 59 56 41 19 79 35 85 35 7 1 15 -16 19 -36z m-297 -66
c6 -7 29 -63 50 -125 l40 -113 -31 -13 c-18 -7 -36 -10 -40 -6 -13 11 -47 147
-54 213 -5 47 -3 57 9 57 9 0 20 -6 26 -13z m624 -131 c35 -85 35 -92 1 -101
-22 -5 -31 -1 -52 26 -22 28 -65 120 -58 124 31 16 55 23 66 22 8 -1 27 -33
43 -71z m-117 -8 c9 -23 19 -63 22 -88 4 -38 2 -48 -12 -53 -9 -4 -21 -5 -25
-2 -14 9 -90 127 -90 140 0 11 59 43 81 44 4 1 14 -18 24 -41z m-263 -148 c9
-36 17 -75 17 -86 1 -31 -33 -37 -57 -10 -18 19 -72 118 -72 131 0 8 64 34 80
32 10 -1 21 -26 32 -67z m421 26 c7 -18 -23 -30 -37 -16 -8 8 -7 14 4 20 21
13 27 12 33 -4z m-538 -43 c10 -21 21 -59 25 -85 6 -42 4 -47 -17 -57 -13 -6
-26 -11 -29 -11 -6 0 -74 145 -74 159 0 9 42 28 66 30 6 1 19 -16 29 -36z
m407 -18 c1 -17 -263 -128 -275 -116 -14 14 -23 8 128 74 128 56 146 61 147
42z m-365 -162 c6 -16 -35 -23 -41 -8 -3 8 0 16 7 19 16 6 30 2 34 -11z"/>
<path d="M29200 11352 c0 -15 48 -33 56 -21 4 6 0 15 -7 20 -18 11 -49 12 -49
1z"/>
<path d="M28934 11225 c-12 -48 16 -45 31 3 5 16 2 22 -9 22 -9 0 -18 -11 -22
-25z"/>
<path d="M13123 11568 c-266 -77 -313 -94 -313 -109 0 -12 7 -19 18 -19 24 0
617 167 644 181 25 13 18 34 -13 36 -13 0 -165 -40 -336 -89z"/>
<path d="M20749 11431 c-20 -11 -45 -35 -56 -53 -13 -22 -28 -34 -44 -35 -38
-3 -60 -38 -132 -206 -71 -164 -79 -205 -48 -236 29 -29 79 -53 103 -49 39 6
30 27 -21 53 -40 20 -51 31 -51 49 0 32 117 306 141 330 18 20 20 19 139 -29
66 -27 120 -50 120 -52 0 -2 -7 -20 -15 -40 -11 -27 -12 -39 -4 -49 19 -23 30
-16 46 26 9 22 20 40 25 40 22 0 69 -36 75 -58 7 -28 -17 -101 -71 -217 -50
-106 -71 -126 -122 -115 -20 5 -38 11 -41 14 -3 3 14 51 37 106 28 65 39 105
33 111 -20 20 -41 -5 -79 -96 l-39 -95 -31 6 c-35 6 -52 -9 -34 -30 16 -21
146 -66 187 -66 55 0 91 45 152 189 28 68 54 143 58 166 5 37 2 46 -27 78 -18
21 -43 40 -56 43 -21 5 -22 10 -17 54 12 101 -43 171 -140 177 -38 2 -62 -2
-88 -16z m159 -66 c22 -27 31 -98 13 -109 -12 -8 -191 67 -191 79 0 22 32 55
63 63 42 11 87 -2 115 -33z"/>
<path d="M24270 11390 c-105 -20 -187 -113 -198 -223 -12 -129 99 -235 219
-208 137 31 185 180 83 260 -29 23 -80 27 -104 8 -45 -35 -65 -99 -34 -111 29
-11 44 -6 54 19 12 31 35 41 55 25 38 -32 -5 -122 -64 -135 -34 -7 -88 13
-114 43 -27 30 -33 94 -13 147 49 128 209 149 304 41 102 -116 42 -328 -107
-381 -186 -65 -358 68 -378 294 l-8 84 -74 25 c-71 24 -75 24 -88 6 -22 -30
-15 -40 35 -59 26 -10 50 -21 54 -24 4 -4 14 -43 22 -86 31 -179 108 -268 269
-311 71 -19 137 -17 194 4 26 11 126 39 221 63 95 24 171 49 170 54 -6 23
-246 361 -283 400 -51 52 -142 80 -215 65z m354 -375 c25 -38 33 -57 24 -60
-39 -13 -101 -26 -105 -22 -3 4 38 137 43 137 1 0 18 -25 38 -55z"/>
<path d="M21226 11281 c-22 -36 -265 -625 -260 -632 8 -13 32 -11 41 3 25 42
260 614 256 625 -6 15 -29 17 -37 4z"/>
<path d="M5103 11228 c-37 -22 -71 -45 -75 -51 -12 -19 -9 -49 7 -67 13 -14 4
-34 -90 -185 -74 -119 -105 -178 -105 -199 0 -26 13 -44 76 -103 84 -79 131
-107 167 -98 13 4 90 64 170 135 141 124 147 128 175 118 16 -6 36 -9 45 -5
21 8 50 65 43 83 -9 22 -35 16 -48 -11 -6 -14 -15 -25 -20 -25 -17 0 -377 315
-375 328 3 22 111 76 138 69 25 -7 168 -126 257 -214 58 -58 72 -64 72 -30 -1
30 -26 58 -156 169 -166 143 -178 146 -281 86z m54 -225 c113 -95 203 -176
203 -184 0 -4 -11 -14 -25 -23 -23 -15 -27 -15 -50 0 -38 25 -65 -7 -30 -36
22 -18 19 -23 -25 -59 -44 -35 -48 -34 -102 14 -18 17 -64 56 -100 88 l-67 58
31 50 c35 57 20 61 122 -30 45 -40 49 -42 64 -27 16 15 12 21 -56 82 l-72 66
17 29 c10 16 18 29 19 29 1 0 33 -26 71 -57z m-181 -218 c6 -6 48 -42 93 -80
l81 -68 -27 -29 c-48 -51 -64 -48 -153 28 -50 42 -80 75 -80 87 0 10 10 37 22
58 22 40 25 40 64 4z"/>
<path d="M35435 11140 c-200 -31 -350 -179 -386 -379 -24 -139 26 -297 126
-397 44 -45 127 -101 112 -77 -7 11 -79 405 -74 409 2 2 33 15 69 28 l66 25
11 -63 c17 -100 19 -96 -49 -96 -41 0 -60 -4 -60 -12 0 -25 48 -269 53 -275 4
-3 21 -3 40 1 l34 6 -17 88 c-9 48 -15 92 -13 99 5 13 110 30 120 19 3 -3 12
-38 20 -78 7 -39 15 -73 17 -75 2 -3 20 -1 39 2 l34 7 -15 80 c-12 65 -12 82
-2 88 19 12 101 23 108 15 4 -4 14 -43 22 -88 l15 -82 30 3 c17 2 33 7 37 11
4 4 0 48 -9 99 l-16 92 -63 0 -62 0 -7 40 c-4 21 -4 44 0 50 7 12 135 14 135
2 0 -5 11 -69 25 -143 14 -74 25 -139 25 -145 0 -6 -23 -16 -50 -21 -61 -12
-61 -12 -80 96 l-12 73 -41 -6 c-23 -4 -43 -9 -46 -11 -2 -3 3 -38 11 -80 17
-87 14 -93 -52 -97 l-44 -3 -15 79 -15 78 -43 -5 c-24 -2 -46 -6 -47 -8 -2 -2
2 -35 10 -74 23 -118 22 -122 -33 -130 l-48 -8 45 -20 c64 -30 218 -36 292
-12 81 27 126 53 179 102 128 120 178 289 134 458 -58 221 -285 370 -510 335z
m240 -62 c4 -18 8 -40 11 -49 3 -11 -13 -21 -61 -38 -36 -13 -68 -21 -70 -19
-3 3 -8 25 -11 50 l-6 46 53 20 c72 28 76 27 84 -10z m-146 -71 c7 -41 6 -47
-11 -53 -25 -7 -24 -8 -32 48 -6 40 -4 47 11 50 24 6 22 8 32 -45z m-150 -79
c7 -40 15 -81 17 -90 4 -14 -1 -18 -20 -18 -21 0 -26 6 -32 38 -3 20 -10 55
-15 77 -7 32 -5 42 8 53 9 6 20 12 23 12 4 0 12 -33 19 -72z m67 46 c-19 -14
-19 -14 2 -14 26 0 29 -15 5 -29 -16 -9 -16 -10 5 -11 12 0 22 -4 22 -10 0 -5
-8 -10 -17 -10 -27 0 -63 11 -63 20 0 4 10 12 23 18 l22 11 -22 0 c-36 1 -36
20 -1 34 39 16 51 12 24 -9z m-128 -68 c7 -35 12 -68 12 -75 0 -12 -136 -16
-143 -3 -3 4 -8 27 -12 52 l-6 45 53 22 c81 32 83 32 96 -41z m245 -83 c11
-58 12 -80 4 -85 -22 -14 -31 -2 -44 58 -17 85 -16 104 6 104 15 0 21 -14 34
-77z m152 40 c4 -21 7 -44 8 -51 1 -8 -18 -22 -43 -32 -93 -36 -87 -38 -99 33
-6 35 -11 69 -11 75 0 8 23 12 70 12 l69 0 6 -37z m-222 -23 c3 -11 1 -20 -4
-20 -5 0 -9 6 -9 13 0 6 -5 4 -11 -7 -9 -15 -13 -16 -20 -5 -6 10 -9 11 -9 2
0 -7 -4 -13 -10 -13 -17 0 -11 38 8 43 36 10 50 6 55 -13z m-74 -132 c6 -35
14 -75 17 -90 5 -23 2 -28 -15 -28 -26 0 -28 5 -43 89 -11 62 -10 74 2 81 25
16 27 12 39 -52z m91 41 c0 -18 -2 -19 -15 -9 -10 8 -15 9 -15 2 0 -7 -7 -9
-17 -5 -11 4 -14 3 -9 -5 4 -7 3 -12 -2 -12 -18 0 -21 39 -3 43 42 12 61 7 61
-14z m19 -102 c1 -4 -11 -12 -26 -18 -20 -7 -30 -6 -41 5 -21 20 -8 44 25 48
26 3 40 -9 42 -35z m65 11 c11 -44 7 -68 -13 -68 -17 0 -31 33 -31 76 0 23 37
16 44 -8z"/>
<path d="M17335 11053 c-98 -23 -295 -79 -317 -90 -39 -19 -59 -64 -65 -149
-7 -85 3 -104 51 -104 30 0 32 -3 80 -123 63 -157 104 -243 123 -258 22 -19
77 -14 179 15 91 25 134 56 134 94 0 9 -9 100 -20 202 -19 175 -19 186 -2 197
39 28 44 36 37 62 -9 38 -41 69 -57 53 -9 -9 -9 -18 1 -38 6 -15 9 -29 6 -32
-10 -11 -480 -131 -486 -124 -14 15 7 132 26 152 23 22 299 100 356 100 42 0
59 24 29 40 -19 10 -40 11 -75 3z m105 -276 c0 -27 -5 -35 -31 -44 -38 -15
-34 -38 7 -38 27 -1 30 -4 38 -53 5 -29 6 -55 3 -58 -6 -7 -257 -74 -275 -74
-16 0 -56 86 -47 100 3 6 11 10 17 10 6 0 42 9 79 20 55 17 69 25 69 40 0 25
-8 25 -95 0 -38 -11 -77 -20 -86 -20 -15 0 -47 55 -38 64 2 2 42 13 89 25 47
11 123 32 170 45 47 13 88 22 93 19 4 -2 7 -19 7 -36z m30 -302 c0 -64 4 -61
-136 -96 -69 -18 -87 -19 -100 -9 -18 16 -47 81 -38 89 7 7 231 68 257 70 14
1 17 -8 17 -54z"/>
<path d="M8902 9968 c-15 -15 -16 -64 -2 -73 21 -13 8 -24 -46 -40 -37 -11
-60 -13 -66 -7 -12 12 -124 -23 -152 -47 -49 -42 -120 -198 -161 -356 -31
-120 -33 -180 -6 -195 39 -20 60 -12 77 30 24 60 41 48 35 -26 -1 -12 4 -26
11 -31 14 -11 285 -83 312 -83 9 0 20 8 23 18 4 9 18 28 31 42 l25 25 -6 -47
c-7 -50 0 -61 44 -72 33 -7 40 1 72 89 42 117 61 229 61 362 l1 122 -54 55
c-30 30 -59 53 -64 49 -12 -7 -97 77 -97 96 0 8 -8 23 -17 33 -15 17 -15 20
-1 35 21 20 48 10 48 -18 0 -23 23 -21 28 3 7 37 -67 65 -96 36z m94 -205 c-4
-5 -166 36 -181 45 -5 3 15 14 45 23 l55 16 42 -40 c24 -23 41 -42 39 -44z
m-226 5 c0 -57 -11 -144 -30 -231 l-11 -55 -47 13 c-55 14 -54 9 -11 142 18
55 29 108 27 129 -2 29 1 39 17 45 47 18 55 12 55 -43z m-95 2 c4 -12 -9 -68
-32 -136 l-38 -116 -34 6 c-18 3 -35 7 -38 10 -14 14 106 256 127 256 5 0 12
-9 15 -20z m223 -14 c52 -14 95 -26 98 -28 2 -3 -2 -12 -9 -21 -13 -18 -12
-18 -144 19 -41 11 -53 19 -53 34 0 24 -5 25 108 -4z m176 -33 l24 -28 -24
-28 c-13 -16 -24 -38 -24 -50 0 -30 -31 -190 -39 -199 -9 -11 -91 13 -91 26 0
42 110 306 127 306 2 0 15 -12 27 -27z m-193 -35 c44 -11 79 -25 79 -29 0 -5
-9 -32 -21 -61 -36 -93 -69 -231 -69 -294 0 -33 -3 -63 -6 -66 -6 -6 -170 35
-180 44 -3 4 6 29 20 57 30 58 72 217 82 309 4 34 9 62 12 62 2 0 40 -10 83
-22z m247 -153 c-2 -74 -7 -138 -11 -141 -3 -4 -22 -3 -42 0 -32 6 -36 10 -31
29 3 12 12 65 21 117 16 88 34 130 58 130 6 0 8 -51 5 -135z m-532 -61 c-3 -7
-8 -30 -12 -50 -9 -50 -42 -104 -62 -104 -47 1 -49 19 -16 136 l14 52 41 -10
c26 -7 38 -15 35 -24z m80 -5 c39 -10 44 -14 38 -33 -12 -44 -63 -146 -73
-146 -25 0 -41 14 -41 38 0 33 21 152 27 152 2 0 24 -5 49 -11z m323 -98 c-1
-31 -44 -134 -60 -144 -9 -6 -24 -7 -34 -3 -16 6 -17 15 -12 80 9 105 9 105
62 93 31 -7 45 -15 44 -26z m105 -45 c-3 -17 -14 -56 -23 -86 -17 -56 -24 -60
-68 -45 -18 6 -16 66 2 130 l16 53 40 -11 c38 -9 40 -11 33 -41z m-586 -43 c2
-8 -5 -13 -17 -13 -21 0 -35 13 -24 24 10 10 36 3 41 -11z m266 -58 c66 -17
122 -37 124 -43 6 -18 -23 -15 -128 13 -52 14 -112 30 -132 36 -22 6 -38 16
-38 25 0 16 -11 18 174 -31z m256 -81 c0 -16 -9 -18 -29 -5 -7 5 -11 14 -7 19
9 15 36 4 36 -14z"/>
<path d="M8642 9424 c-12 -8 -20 -19 -17 -24 8 -13 55 10 55 27 0 17 -11 17
-38 -3z"/>
<path d="M8930 9357 c0 -19 27 -53 36 -45 9 10 -12 58 -26 58 -5 0 -10 -6 -10
-13z"/>
<path d="M29815 9822 c-11 -9 -31 -33 -43 -53 -20 -34 -21 -38 -6 -50 15 -12
19 -10 33 11 9 13 26 36 37 50 21 24 23 24 56 9 80 -39 298 -189 298 -206 0
-10 -30 -66 -66 -126 l-66 -107 -33 20 c-40 25 -65 26 -65 2 0 -11 14 -27 35
-38 19 -10 35 -20 35 -23 0 -2 -11 -19 -26 -38 -41 -54 -74 -44 -264 79 -80
52 -94 70 -87 115 12 69 23 69 120 8 91 -58 117 -66 117 -37 0 11 -32 37 -88
71 -48 30 -89 56 -91 57 -2 2 2 17 9 35 11 26 11 32 -1 40 -18 11 -49 -25 -89
-105 -36 -71 -37 -102 -7 -146 27 -40 255 -187 304 -196 46 -9 95 15 120 56
14 24 23 30 38 25 91 -28 140 -22 186 24 63 63 60 165 -7 226 -24 22 -32 37
-28 51 9 34 -37 76 -190 173 -153 97 -190 108 -231 73z m455 -402 c0 -46 -17
-78 -52 -100 -38 -23 -76 -26 -102 -7 -17 12 -14 20 40 107 l58 93 28 -32 c17
-19 28 -43 28 -61z"/>
<path d="M37455 9550 c-39 -16 -115 -127 -115 -168 0 -21 29 -52 49 -52 9 0
11 -50 9 -211 -4 -250 -10 -237 129 -263 124 -23 165 -21 191 7 13 14 46 98
81 203 l59 179 33 5 c25 4 36 12 43 31 13 37 0 79 -24 79 -16 0 -20 -7 -20
-35 0 -19 -2 -35 -4 -35 -2 0 -110 18 -241 40 -131 22 -241 40 -246 40 -15 0
-10 27 13 67 36 64 48 73 92 73 57 0 318 -45 344 -59 30 -16 42 -14 42 10 0
29 -42 43 -220 73 -166 28 -184 29 -215 16z m190 -266 c88 -14 162 -28 164
-30 1 -1 -1 -15 -6 -31 -7 -21 -17 -29 -43 -33 -42 -6 -50 -27 -16 -40 31 -11
31 -12 10 -74 -15 -43 -19 -47 -43 -42 -14 3 -69 12 -121 21 -165 27 -150 19
-150 80 0 30 3 56 8 58 4 3 45 -2 91 -11 70 -12 84 -13 91 -1 15 24 -8 35 -94
48 -78 12 -84 15 -89 39 -7 35 2 54 22 48 9 -3 88 -17 176 -32z m-55 -275 c69
-11 127 -22 129 -24 7 -8 -31 -96 -44 -102 -19 -7 -207 26 -222 39 -7 6 -13
32 -13 59 0 33 4 49 13 49 6 0 68 -9 137 -21z"/>
<path d="M29484 9369 c-3 -6 2 -19 12 -29 38 -36 557 -361 573 -358 9 2 16 10
16 18 0 14 -559 379 -582 380 -6 0 -15 -5 -19 -11z"/>
<path d="M24420 8570 c-14 -4 -92 -36 -174 -69 -83 -34 -155 -61 -162 -61 -6
0 -17 7 -24 15 -7 8 -23 15 -37 15 -24 0 -73 -40 -73 -60 0 -22 32 -22 55 0
l23 22 15 -24 c16 -25 115 -185 196 -316 28 -46 51 -87 51 -92 0 -21 -126 -38
-157 -21 -23 12 -191 278 -202 319 -10 37 -35 35 -39 -3 -2 -23 17 -62 84
-170 97 -158 125 -191 165 -200 35 -8 174 22 189 40 6 7 10 29 8 48 -3 34 2
39 136 148 169 138 183 155 167 200 -14 40 -85 153 -120 192 -26 28 -54 33
-101 17z m125 -128 c30 -48 55 -95 55 -104 0 -18 -69 -80 -80 -73 -11 7 -140
221 -140 233 0 12 80 41 97 35 7 -3 37 -44 68 -91z m-139 -85 c41 -64 74 -121
74 -125 0 -14 -79 -74 -89 -68 -5 3 -27 37 -50 76 -40 66 -62 83 -76 59 -4 -6
14 -44 39 -85 25 -41 46 -77 46 -81 0 -12 -33 -43 -45 -43 -10 0 -176 256
-191 294 -3 8 7 18 26 26 30 12 33 12 55 -16 19 -24 26 -27 37 -16 10 10 10
16 0 32 -6 11 -12 22 -12 25 0 9 83 44 99 42 7 -1 47 -55 87 -120z"/>
<path d="M1228 8477 c-32 -18 -58 -39 -58 -47 0 -19 -83 -70 -113 -70 -13 0
-28 -5 -33 -10 -17 -17 -45 0 -42 24 2 15 11 22 31 24 32 4 36 18 7 27 -47 15
-83 -38 -55 -82 15 -22 22 -25 56 -20 l39 5 0 -64 c0 -41 -4 -64 -11 -64 -19
0 -4 -135 20 -173 48 -78 280 -232 422 -281 49 -17 54 -15 74 24 14 28 14 30
-22 64 l-37 35 35 -3 c20 -2 40 -6 45 -9 18 -11 33 9 110 152 75 140 77 144
58 160 -10 10 -25 27 -32 39 -15 26 0 30 44 10 23 -11 28 -10 45 11 11 13 19
30 19 38 0 65 -373 245 -503 242 -27 0 -62 -12 -99 -32z m159 -2 c33 -8 91
-26 127 -41 l66 -26 -17 -31 c-8 -18 -16 -33 -17 -34 -4 -5 -212 91 -228 105
-21 17 -24 42 -5 42 6 0 40 -7 74 -15z m-107 -18 c0 -23 30 -42 142 -92 l107
-47 -22 -44 c-24 -50 -24 -50 -106 -1 -57 34 -182 136 -188 152 -2 6 9 17 25
27 34 20 42 21 42 5z m-101 -89 c-6 -13 -28 -52 -47 -88 -33 -59 -37 -62 -43
-40 -4 14 -7 40 -8 57 -1 29 5 37 47 63 57 36 66 37 51 8z m507 -14 c74 -42
79 -47 64 -75 -10 -18 -18 -20 -52 -15 -36 6 -128 51 -128 62 0 14 32 64 41
64 6 0 40 -16 75 -36z m-482 -87 c-33 -62 -48 -81 -61 -79 -10 2 -20 5 -21 7
-2 2 18 44 44 94 45 82 50 88 66 75 15 -14 13 -22 -28 -97z m289 -76 c43 -22
96 -42 118 -46 21 -4 42 -11 45 -16 4 -7 -66 -152 -81 -168 -2 -2 -25 15 -50
37 -47 41 -198 124 -287 157 -27 10 -48 19 -48 22 0 7 62 128 72 140 7 9 28
-1 81 -37 40 -27 107 -67 150 -89z m174 34 c38 -33 38 -65 -2 -65 -25 0 -135
36 -148 49 -5 5 1 27 13 50 l21 42 41 -23 c22 -13 56 -36 75 -53z m133 41 c0
-18 -17 -29 -30 -21 -8 5 -7 11 1 21 15 18 29 18 29 0z m-639 -112 c30 -9 93
-34 141 -56 l87 -40 -21 -42 c-11 -22 -22 -43 -24 -45 -3 -4 -113 62 -168 101
-24 17 -52 28 -73 28 -31 0 -33 2 -33 35 0 41 9 43 91 19z m571 -15 c-2 -7
-33 -68 -69 -135 -45 -82 -71 -120 -80 -117 -12 5 35 105 116 246 15 27 39 32
33 6z m-511 -129 c51 -33 97 -61 102 -63 8 -2 -5 -32 -30 -66 -11 -15 -213
152 -213 177 0 27 54 9 141 -48z m232 8 c18 -11 49 -37 69 -56 30 -29 35 -39
27 -54 -7 -14 -17 -17 -37 -12 -31 7 -142 55 -142 61 0 9 41 83 46 83 3 0 20
-10 37 -22z m-50 -109 c47 -24 97 -67 97 -84 0 -6 -6 -19 -13 -30 -13 -17 -18
-16 -90 21 -43 21 -77 42 -77 47 0 11 29 67 36 67 2 0 24 -9 47 -21z m136
-131 c-7 -13 -14 -17 -20 -11 -14 14 0 43 17 36 10 -4 11 -10 3 -25z"/>
<path d="M1555 8239 c-4 -6 -5 -13 -1 -16 8 -8 56 6 56 17 0 13 -47 13 -55 -1z"/>
<path d="M1420 7983 c0 -23 17 -49 26 -41 9 10 -4 58 -16 58 -6 0 -10 -8 -10
-17z"/>
<path d="M19940 8059 c-87 -14 -188 -69 -253 -138 -79 -83 -117 -167 -124
-273 l-6 -81 35 26 c19 15 39 27 44 27 4 0 30 -21 56 -47 l47 -46 -40 -30 -40
-30 -51 49 -50 49 7 -45 c18 -128 131 -271 262 -333 65 -31 74 -32 189 -32
119 0 121 0 196 38 144 71 228 183 257 340 6 36 6 47 -3 44 -7 -3 -83 -57
-170 -121 l-158 -116 -49 41 c-27 22 -51 45 -54 49 -5 8 113 106 119 99 2 -2
15 -28 30 -56 14 -29 29 -53 31 -53 7 0 235 171 235 177 0 10 -33 53 -41 53
-5 0 -40 -22 -78 -50 -38 -27 -73 -50 -78 -50 -5 0 -24 20 -42 45 -38 53 -38
52 43 110 31 22 56 42 55 45 0 3 -10 17 -22 33 l-23 27 -60 -45 c-32 -24 -66
-44 -74 -45 -15 0 -70 69 -70 88 0 6 31 33 70 62 l69 52 -21 29 c-12 16 -24
29 -26 29 -12 0 -152 -112 -152 -121 0 -5 9 -28 21 -50 24 -48 21 -59 -20 -88
l-30 -22 -31 62 c-18 34 -28 65 -23 70 23 22 229 169 238 169 16 -1 69 -81 59
-89 -5 -4 -37 -29 -71 -55 -35 -26 -63 -49 -63 -52 0 -10 44 -64 53 -64 5 0
35 20 67 45 32 25 62 45 67 45 4 0 21 -18 36 -41 34 -46 32 -49 -48 -105 -30
-20 -55 -40 -55 -44 0 -3 13 -21 28 -40 l28 -33 77 56 c72 53 78 56 91 40 8
-10 24 -29 36 -43 l21 -25 -7 50 c-16 138 -89 264 -194 337 -94 65 -229 95
-340 77z m-22 -396 c6 -2 -106 -83 -116 -83 -4 0 -21 27 -37 60 -28 59 -28 61
-9 74 10 8 28 21 39 30 19 14 23 12 70 -32 27 -26 51 -48 53 -49z m150 46 c1
-8 -12 -24 -30 -36 -29 -20 -34 -21 -47 -8 -8 8 -13 16 -10 18 67 51 81 56 87
26z m-110 -90 c-6 -15 -129 -99 -138 -94 -22 13 -7 35 52 79 48 36 64 43 75
34 8 -6 12 -14 11 -19z m121 -31 c-14 -26 -34 -22 -54 9 -17 25 -17 27 0 39
15 11 21 10 41 -9 17 -16 20 -26 13 -39z m-110 -15 c-12 -15 -12 -16 5 -10 14
6 17 4 12 -9 -5 -12 -2 -15 10 -10 10 4 14 1 12 -6 -8 -24 -37 -19 -54 7 -15
23 -15 28 -3 36 23 14 32 10 18 -8z m168 -26 c-3 -7 -32 -31 -64 -54 -55 -38
-61 -40 -76 -25 -15 14 -11 20 56 68 59 43 73 50 80 38 5 -8 7 -21 4 -27z
m-241 -23 c-5 -12 -2 -15 10 -10 12 4 14 1 9 -14 -5 -16 -3 -19 12 -13 16 6
16 5 4 -10 -18 -23 -26 -21 -46 9 -13 20 -14 28 -4 40 15 19 23 18 15 -2z
m-127 -28 c10 -12 5 -19 -26 -40 -33 -23 -39 -24 -52 -11 -8 8 -13 16 -10 18
70 54 71 54 88 33z m76 -38 c16 -39 11 -52 -15 -38 -15 8 -17 6 -13 -10 8 -28
-18 -26 -47 5 -25 27 -21 32 11 14 19 -9 19 -9 10 10 -11 20 2 40 14 21 11
-18 23 -11 18 10 -8 32 7 23 22 -12z m109 -24 c8 -21 -3 -34 -69 -79 -50 -35
-85 -41 -85 -15 0 10 128 110 141 110 4 0 10 -7 13 -16z m50 -103 c14 -32 26
-61 26 -65 0 -3 -19 -20 -42 -36 l-42 -31 -48 48 c-26 26 -48 51 -48 55 0 8
109 88 120 88 4 0 19 -26 34 -59z"/>
<path d="M32545 7988 c2 -29 7 -135 10 -234 6 -218 17 -262 77 -321 54 -53
102 -73 173 -73 153 0 264 124 234 259 -13 60 -44 100 -93 122 -110 50 -224
-3 -233 -108 -5 -64 22 -109 70 -118 37 -7 82 10 107 40 11 14 10 19 -8 38
-19 18 -25 20 -40 9 -33 -24 -45 -25 -58 -7 -19 25 -18 29 12 64 21 26 33 31
69 31 35 0 49 -6 73 -30 42 -41 48 -79 24 -134 -43 -96 -163 -131 -251 -73
-84 56 -108 164 -58 263 91 179 320 190 434 21 67 -100 64 -222 -9 -343 l-39
-65 42 -52 c62 -75 69 -80 91 -60 24 22 23 29 -13 74 l-30 38 37 92 c64 162
47 281 -57 394 -47 51 -131 105 -164 105 -11 0 -101 27 -200 60 -99 33 -185
60 -192 60 -10 0 -12 -14 -8 -52z m188 -87 c-52 -43 -103 -81 -107 -81 -3 0
-6 29 -6 64 l0 65 61 -21 c33 -11 57 -23 52 -27z"/>
<path d="M12282 8008 c-22 -22 -13 -46 28 -75 l41 -28 -8 -65 c-21 -170 6
-269 93 -349 29 -27 79 -62 110 -77 50 -24 69 -28 168 -30 61 -1 173 -5 249
-9 110 -6 137 -5 137 6 0 28 -133 426 -158 471 -50 94 -167 139 -279 107 -65
-18 -147 -98 -163 -159 -42 -156 80 -282 232 -240 45 13 95 68 103 114 15 78
-44 154 -110 141 -34 -6 -85 -51 -85 -75 0 -9 11 -22 25 -28 23 -11 29 -9 49
15 20 24 26 25 40 14 43 -36 -10 -121 -75 -121 -105 0 -151 111 -86 209 94
142 312 68 325 -109 12 -158 -136 -293 -287 -262 -181 38 -271 211 -211 403
10 35 18 64 17 65 -142 104 -136 101 -155 82z m707 -497 c7 -23 15 -49 18 -57
4 -11 -4 -14 -33 -13 -22 1 -51 4 -66 8 l-26 6 41 56 c23 31 45 54 48 50 3 -3
11 -26 18 -50z"/>
<path d="M42604 7879 c-3 -6 -2 -14 2 -19 13 -12 676 -23 693 -11 8 5 11 16 8
25 -6 14 -44 16 -351 16 -238 0 -347 -3 -352 -11z"/>
<path d="M42832 7777 c-33 -19 -53 -53 -60 -105 -7 -45 -9 -47 -48 -54 -61
-13 -106 -63 -112 -127 -2 -29 1 -64 8 -81 18 -43 73 -88 117 -96 25 -4 47
-18 64 -38 l27 -31 184 -3 c222 -5 250 2 268 67 15 55 4 111 -21 111 -16 0
-19 -8 -19 -53 0 -29 -5 -58 -12 -65 -8 -8 -66 -12 -194 -12 -153 0 -185 3
-198 16 -13 12 -16 40 -16 144 l0 129 48 3 c34 2 47 7 47 18 0 11 -13 16 -47
18 l-48 3 0 38 c0 23 8 48 18 62 18 22 24 22 179 22 97 -1 169 -5 181 -12 18
-10 36 -57 37 -96 0 -6 -48 -12 -115 -15 -93 -4 -115 -8 -115 -20 0 -12 20
-16 110 -18 114 -3 125 -7 125 -49 0 -17 6 -23 21 -23 20 0 21 4 17 99 -3 113
-19 147 -79 168 -47 17 -337 16 -367 0z m-62 -297 c0 -55 -1 -103 -2 -107 -5
-14 -59 -5 -79 13 -53 48 -45 138 15 175 61 37 66 31 66 -81z"/>
<path d="M10307 7114 c-22 -12 -31 -13 -43 -3 -28 23 -83 1 -215 -88 -163
-109 -189 -132 -189 -170 0 -35 55 -126 73 -120 20 6 20 35 -2 66 -43 59 -41
61 158 195 80 54 122 76 139 74 19 -2 42 -27 94 -101 37 -54 68 -102 68 -107
0 -4 -16 -18 -35 -30 -39 -24 -42 -32 -20 -50 12 -10 21 -8 50 14 l35 27 20
-33 c24 -40 25 -56 4 -87 -25 -35 -251 -181 -282 -181 -24 0 -82 43 -82 62 0
4 41 35 90 68 50 33 90 64 90 69 0 5 -6 14 -13 20 -11 8 -34 -3 -101 -49 -49
-33 -92 -60 -97 -60 -4 0 -13 9 -19 20 -6 11 -17 20 -26 20 -32 0 -25 -32 21
-96 48 -67 94 -104 131 -104 55 0 305 164 336 220 19 37 15 77 -13 125 l-20
34 21 11 c25 13 60 83 60 120 0 43 -36 106 -72 128 -42 26 -119 29 -161 6z
m117 -38 c43 -18 66 -51 66 -97 0 -34 -31 -89 -50 -89 -10 0 -120 155 -120
170 0 11 34 28 58 29 7 1 28 -5 46 -13z"/>
<path d="M10425 6559 c-263 -178 -305 -214 -269 -226 7 -2 140 82 295 187 270
181 316 220 269 227 -8 1 -141 -83 -295 -188z"/>
<path d="M16682 6719 c-41 -12 -65 -61 -60 -122 2 -34 7 -42 23 -42 17 0 21 8
25 53 3 31 12 57 20 62 21 13 346 13 371 0 17 -10 19 -22 19 -140 l0 -130 -38
0 c-41 0 -63 -15 -55 -36 3 -9 21 -14 49 -14 43 0 44 -1 44 -34 0 -19 -9 -44
-19 -57 -19 -23 -23 -24 -185 -24 -187 0 -194 2 -203 73 l-6 41 114 3 c106 3
114 4 114 23 0 19 -8 20 -112 23 l-112 3 -3 27 c-2 19 -9 27 -23 27 -18 0 -20
-7 -20 -85 0 -168 22 -185 250 -184 97 0 171 5 187 12 36 15 59 53 65 106 5
42 7 44 43 50 51 8 95 47 116 102 15 38 15 51 4 86 -17 58 -67 106 -119 114
-26 4 -46 14 -52 26 -21 39 -68 48 -241 47 -90 0 -178 -5 -196 -10z m530 -138
c28 -25 33 -36 33 -76 0 -40 -5 -51 -33 -76 -18 -16 -43 -29 -57 -29 l-25 0 0
105 0 105 25 0 c14 0 39 -13 57 -29z"/>
<path d="M4793 6620 c-79 -22 -157 -47 -174 -55 -41 -22 -59 -69 -59 -159 0
-66 3 -77 20 -86 12 -6 30 -10 41 -8 18 3 31 -21 95 -172 81 -187 87 -198 120
-211 26 -9 215 33 251 56 45 30 46 44 22 253 -16 146 -19 197 -10 200 22 7 41
34 41 57 0 33 -41 78 -59 66 -12 -8 -13 -14 -2 -37 6 -15 8 -30 4 -35 -8 -7
-455 -129 -475 -129 -17 0 2 133 21 153 18 19 275 94 344 101 73 7 76 46 4 45
-23 0 -106 -18 -184 -39z m247 -212 c0 -7 3 -22 6 -33 4 -16 -2 -23 -25 -32
-43 -16 -41 -43 3 -43 34 0 34 0 38 -52 2 -29 3 -54 2 -56 0 -1 -59 -18 -130
-38 -71 -19 -134 -36 -141 -39 -14 -5 -56 82 -49 100 2 6 38 19 81 29 75 18
99 36 77 58 -6 6 -34 3 -84 -11 -41 -12 -81 -21 -90 -21 -15 0 -43 48 -33 58
6 6 313 90 333 91 6 1 12 -5 12 -11z m38 -325 c3 -47 1 -51 -25 -61 -54 -22
-185 -54 -198 -48 -15 6 -59 85 -52 93 8 7 251 72 262 69 6 -1 11 -25 13 -53z"/>
<path d="M16590 6111 c0 -10 7 -22 16 -25 9 -3 161 -6 338 -6 254 0 326 3 341
13 45 33 10 37 -346 37 -336 0 -349 -1 -349 -19z"/>
<path d="M2551 5999 c-62 -12 -159 -60 -209 -104 -48 -41 -109 -125 -92 -125
7 0 99 16 207 36 107 19 196 34 197 32 8 -11 46 -113 46 -123 0 -7 -25 -17
-57 -24 -94 -19 -93 -19 -93 49 0 43 -4 60 -13 60 -14 0 -215 -36 -254 -45
-18 -4 -23 -13 -23 -36 0 -16 6 -32 14 -35 8 -3 50 1 93 9 93 18 99 15 109
-60 7 -59 18 -51 -98 -73 -60 -12 -65 -18 -52 -66 5 -20 8 -20 72 -8 102 20
99 21 112 -42 14 -68 15 -68 -92 -84 l-78 -13 6 -36 c4 -20 8 -37 9 -39 1 -1
46 5 99 15 l96 17 0 62 0 62 41 7 c22 4 42 5 44 3 2 -1 6 -33 10 -69 l7 -66
-129 -22 c-70 -12 -140 -25 -154 -28 -25 -5 -28 -2 -38 43 -13 62 -6 67 95 83
l75 13 -6 41 c-4 23 -9 43 -10 45 -2 2 -39 -2 -84 -9 -44 -7 -83 -10 -86 -7
-3 2 -6 27 -7 54 l-3 49 79 14 78 15 -6 45 c-3 24 -7 46 -9 47 -1 1 -36 -4
-77 -12 -116 -22 -116 -22 -127 34 l-10 47 -16 -36 c-47 -105 -41 -252 13
-368 34 -71 115 -161 178 -198 170 -100 391 -79 538 50 44 39 124 148 124 169
0 9 -35 5 -82 -8 -12 -4 -21 10 -38 61 -12 37 -20 68 -18 71 3 2 25 7 50 10
l45 6 23 -63 24 -64 13 45 c9 29 13 78 11 140 -3 85 -7 103 -41 173 -91 194
-296 297 -506 256z m358 -185 c13 -36 22 -66 20 -68 -5 -4 -119 -26 -136 -26
-10 0 -13 19 -13 74 l0 75 33 4 c74 9 71 11 96 -59z m39 -111 c3 -18 -5 -22
-65 -32 -37 -7 -76 -14 -85 -17 -14 -4 -18 1 -18 20 0 21 6 26 38 32 20 3 53
10 72 14 46 10 54 8 58 -17z m-218 -54 c0 -3 -28 -12 -62 -18 -35 -6 -75 -14
-90 -17 -25 -5 -28 -2 -28 19 0 23 6 26 78 39 68 13 78 13 90 -1 6 -8 12 -18
12 -22z m180 -16 c0 26 18 20 34 -12 18 -34 8 -52 -11 -19 l-12 23 -1 -22 c0
-27 -15 -30 -29 -5 -9 15 -10 15 -11 -5 0 -13 -4 -23 -10 -23 -11 0 -14 63 -3
73 3 4 15 0 25 -10 17 -15 18 -15 18 0z m-100 -15 c0 -7 3 -23 6 -35 5 -19 2
-23 -17 -23 -19 0 -21 2 -9 10 13 8 12 10 -2 10 -21 0 -24 16 -5 23 7 3 4 6
-6 6 -10 1 -15 6 -12 11 9 14 45 12 45 -2z m-81 -55 c1 -17 -5 -23 -20 -23
-18 0 -19 2 -9 15 10 12 9 15 -6 16 -11 0 -14 3 -6 6 6 2 12 9 12 14 0 6 -4 7
-10 4 -5 -3 -10 -2 -10 4 0 5 8 11 18 13 19 4 30 -14 31 -49z m-95 21 c11 -28
6 -52 -10 -58 -23 -9 -24 -8 -34 20 -7 19 -7 31 1 40 15 19 35 18 43 -2z m376
-34 c9 -17 6 -20 -27 -25 -65 -11 -68 -11 -71 12 -3 18 3 22 30 26 18 2 38 5
45 5 7 1 17 -7 23 -18z m-150 -29 c0 -16 -13 -22 -77 -33 -77 -14 -92 -11 -93
18 0 10 84 29 143 33 20 1 27 -4 27 -18z m-220 -40 c0 -17 -33 -31 -76 -31
-20 0 -17 38 4 43 44 12 72 7 72 -12z m215 -68 c-4 -38 -8 -69 -9 -70 -1 -1
-21 -6 -45 -12 l-42 -9 -20 45 c-37 87 -37 89 18 101 26 5 61 10 76 11 l29 1
-7 -67z"/>
<path d="M33913 5504 c-3 -8 -2 -19 3 -24 5 -4 130 -94 278 -200 225 -161 271
-190 282 -178 7 7 10 18 6 24 -10 16 -541 394 -553 394 -5 0 -12 -7 -16 -16z"/>
<path d="M13950 5403 c-14 -9 -32 -26 -40 -37 -35 -46 -70 -100 -70 -108 0 -5
12 -21 27 -36 15 -15 27 -29 26 -32 0 -3 -15 -88 -32 -190 -35 -204 -34 -228
16 -253 44 -23 191 -67 222 -67 15 0 36 9 47 21 10 11 57 95 104 187 83 162
86 167 120 172 40 6 66 45 56 86 -10 37 -40 27 -44 -14 -2 -17 -6 -32 -10 -32
-6 0 -383 119 -449 143 -18 6 -33 14 -33 18 0 17 84 110 104 115 24 6 361
-100 371 -116 11 -17 35 -11 35 9 0 31 -34 48 -201 101 -168 54 -211 59 -249
33z m190 -278 c80 -26 146 -48 148 -50 2 -2 -4 -17 -12 -33 -14 -28 -19 -30
-51 -25 -41 7 -49 -15 -13 -39 l21 -14 -19 -47 c-12 -31 -25 -47 -37 -47 -9 0
-76 19 -148 42 l-130 42 7 41 c12 76 13 77 104 47 59 -19 83 -23 91 -15 19 19
3 30 -81 58 -44 15 -82 31 -86 36 -3 5 -3 23 1 39 6 26 9 28 33 20 15 -5 92
-30 172 -55z m-38 -283 c32 -9 58 -21 58 -26 0 -4 -10 -26 -22 -47 -17 -30
-28 -39 -48 -39 -39 0 -192 54 -203 72 -5 8 -7 35 -3 60 l7 46 77 -24 c42 -13
103 -32 134 -42z"/>
<path d="M33947 5260 l-40 -41 -40 16 c-75 30 -166 -9 -197 -85 -21 -51 -8
-126 29 -164 21 -21 31 -42 31 -62 0 -45 18 -64 164 -168 156 -111 178 -122
218 -105 32 13 93 93 83 109 -12 19 -29 10 -66 -32 -34 -40 -38 -42 -64 -30
-36 17 -254 173 -278 200 -16 17 -17 24 -6 44 24 47 133 198 142 198 5 0 22
-10 39 -21 26 -19 31 -20 45 -7 13 14 10 19 -22 46 -36 29 -37 30 -20 55 9 14
29 30 45 36 25 8 36 5 82 -23 84 -50 206 -143 218 -166 13 -24 6 -66 -15 -93
-13 -18 -19 -16 -101 42 -92 64 -114 73 -114 43 0 -12 31 -40 83 -77 45 -32
84 -60 87 -62 2 -2 -1 -13 -8 -23 -17 -28 -15 -50 6 -50 19 0 92 105 110 158
9 27 9 40 -3 65 -20 46 -31 57 -116 119 -185 137 -222 147 -292 78z m-83 -73
c15 -11 12 -20 -44 -100 -34 -49 -67 -86 -73 -84 -7 1 -20 20 -31 41 -16 33
-17 43 -7 77 19 64 106 102 155 66z"/>
<path d="M40792 5255 c-120 -34 -122 -31 86 -119 103 -43 191 -82 195 -86 7
-6 -16 -126 -26 -136 -6 -6 -137 46 -137 55 0 3 14 26 30 51 16 25 30 48 30
51 0 6 -258 119 -272 119 -10 0 -29 -63 -21 -70 5 -4 43 -22 86 -40 69 -29 78
-36 73 -55 -10 -40 -36 -95 -45 -95 -5 0 -31 9 -58 21 -96 42 -91 41 -108 8
-9 -16 -14 -33 -11 -37 3 -5 37 -21 76 -37 62 -25 71 -31 66 -50 -10 -37 -36
-95 -44 -95 -4 0 -39 13 -77 30 -39 16 -75 30 -82 30 -10 0 -37 -59 -30 -66 3
-4 168 -74 172 -74 2 0 18 21 36 48 18 26 33 48 34 50 4 4 85 -29 85 -35 0
-13 -66 -113 -75 -113 -19 0 -275 112 -275 121 0 24 34 89 47 89 8 0 46 -14
85 -30 39 -17 72 -29 73 -28 8 9 35 69 35 76 0 5 -31 21 -70 36 -38 15 -72 32
-75 37 -6 8 29 99 38 99 2 0 37 -14 77 -30 40 -17 74 -29 75 -28 8 10 35 69
35 76 0 5 -35 24 -77 42 -43 17 -82 36 -87 40 -5 5 -2 26 8 51 9 23 15 43 14
45 -7 6 -97 -72 -127 -110 -78 -98 -114 -236 -93 -357 18 -103 55 -173 131
-250 74 -73 142 -111 239 -129 226 -45 453 93 522 317 70 227 -54 478 -278
563 -74 29 -207 36 -280 15z m452 -275 c25 -10 46 -23 46 -28 0 -13 -23 -126
-26 -131 -5 -6 -144 52 -144 61 0 8 70 118 76 118 1 0 23 -9 48 -20z m-278
-58 c52 -22 70 -34 72 -50 5 -30 -12 -28 -96 9 -63 28 -70 34 -61 50 5 11 11
19 13 19 2 0 34 -13 72 -28z m-43 -58 c9 -9 -14 -64 -26 -64 -26 0 -38 17 -31
43 4 19 13 27 28 27 13 0 25 -3 29 -6z m263 -35 c55 -23 74 -35 70 -46 -3 -8
-6 -19 -6 -23 0 -8 -156 53 -169 65 -4 5 18 35 26 35 2 0 38 -14 79 -31z
m-188 2 c12 -7 7 -33 -14 -69 -3 -6 -34 11 -34 20 0 5 5 6 12 2 8 -5 9 -2 5 9
-4 12 -1 17 10 17 13 0 13 3 3 15 -13 16 -3 20 18 6z m-153 -38 c37 -18 39
-21 27 -41 -7 -10 -16 -9 -48 4 -49 20 -49 20 -34 39 15 18 12 19 55 -2z m245
-4 c0 -19 -24 -59 -36 -59 -20 0 -27 20 -7 21 10 0 13 3 6 6 -19 7 -16 23 5
24 10 0 12 3 5 6 -21 8 -15 22 7 16 11 -3 20 -9 20 -14z m75 -52 c-6 -22 -6
-22 10 -3 9 12 18 16 24 10 11 -12 2 -74 -11 -74 -6 0 -8 12 -5 27 4 24 4 26
-8 10 -17 -24 -39 -22 -32 4 5 20 5 20 -14 3 -25 -23 -24 -4 2 30 23 30 43 25
34 -7z m-85 -54 c0 -24 -23 -24 -90 3 -48 19 -70 32 -70 44 0 9 3 19 6 22 9 9
154 -56 154 -69z m-48 -34 c18 -10 18 -11 1 -40 -10 -16 -27 -41 -39 -56 -21
-26 -22 -27 -63 -13 -23 7 -44 16 -46 19 -2 4 4 36 13 73 l15 66 50 -19 c28
-11 58 -24 69 -30z m161 -1 c16 -6 27 -17 27 -29 0 -23 -16 -24 -63 -4 -28 12
-34 19 -30 35 4 15 11 19 22 15 9 -4 28 -12 44 -17z m-10 -60 c15 -5 27 -14
27 -18 0 -19 -24 -116 -30 -123 -11 -13 -90 23 -90 42 0 15 14 76 26 110 2 8
11 10 22 6 9 -4 29 -12 45 -17z"/>
<path d="M31980 4993 c-101 -43 -282 -174 -359 -259 -37 -41 -42 -52 -35 -72
16 -43 38 -49 85 -23 l41 23 -7 -23 c-4 -13 -14 -31 -21 -40 -8 -8 -14 -22
-14 -30 0 -18 197 -253 216 -257 8 -2 20 1 27 6 7 5 25 12 40 16 25 6 27 5 18
-12 -5 -10 -17 -24 -25 -32 -23 -18 -20 -43 8 -69 l25 -23 38 23 c127 76 304
254 357 357 21 41 12 152 -14 182 -19 22 -35 114 -23 133 4 7 8 23 8 37 0 19
6 26 23 28 20 3 23 0 22 -25 -3 -43 -1 -47 15 -33 34 29 7 90 -40 90 -28 0
-60 -41 -51 -65 3 -8 2 -15 -3 -15 -23 0 -108 35 -121 50 -19 22 -103 50 -144
49 -17 0 -47 -7 -66 -16z m80 -19 c0 -9 -12 -27 -27 -40 -40 -35 -177 -134
-185 -134 -4 0 -16 13 -27 29 l-21 29 67 43 c60 38 165 88 186 89 4 0 7 -7 7
-16z m98 -20 c15 -11 -202 -255 -225 -253 -14 1 -65 68 -59 77 3 5 48 39 100
76 65 46 98 76 105 96 9 28 11 29 43 18 18 -6 35 -12 36 -14z m142 -84 c4 -8
11 -37 14 -65 9 -57 13 -59 -72 41 -29 33 -52 63 -52 66 0 12 102 -27 110 -42z
m-10 -131 c0 -8 -4 -10 -28 -13 -10 -1 -122 129 -122 141 0 5 5 14 11 20 8 8
28 -8 75 -64 35 -41 64 -79 64 -84z m-502 0 c-24 -20 -58 -42 -77 -49 -29 -11
-36 -10 -53 7 -19 20 -19 20 49 82 l68 62 28 -33 27 -32 -42 -37z m391 34 c42
-51 51 -67 40 -73 -92 -53 -250 -186 -290 -244 -13 -20 -27 -36 -30 -36 -4 0
-34 32 -68 72 l-61 72 60 32 c73 39 123 79 215 173 39 39 72 71 75 70 3 0 29
-30 59 -66z m-296 -58 l28 -34 -39 -28 c-21 -16 -58 -37 -81 -48 -36 -16 -44
-17 -52 -4 -5 8 -9 19 -9 25 0 15 100 124 113 123 7 0 25 -16 40 -34z m467 6
c0 -5 3 -23 6 -40 6 -29 4 -31 -21 -31 -21 0 -48 -20 -114 -85 -48 -47 -92
-85 -99 -85 -6 0 -23 16 -38 35 -26 35 -26 36 -8 51 76 60 244 163 267 164 4
0 7 -4 7 -9z m-711 -45 c8 -10 9 -16 1 -21 -13 -8 -30 3 -30 21 0 18 14 18 29
0z m721 -59 c0 -22 -54 -99 -113 -162 l-56 -60 -26 26 -27 27 87 83 c97 94
135 118 135 86z m-546 -146 c65 -77 93 -118 86 -125 -6 -6 -13 -6 -19 0 -50
56 -181 217 -181 223 0 8 12 23 15 19 2 -2 46 -54 99 -117z m255 20 l31 -38
-58 -40 c-70 -50 -95 -58 -111 -39 -10 12 -10 20 0 37 10 20 98 119 105 119 1
0 16 -17 33 -39z m79 -91 l23 -29 -68 -55 c-37 -31 -70 -56 -74 -56 -4 0 -13
10 -22 23 -13 21 -12 25 12 60 24 33 87 88 100 86 3 0 16 -13 29 -29z m-152
-159 c-10 -16 -23 -14 -30 5 -9 25 4 38 21 21 9 -8 12 -20 9 -26z"/>
<path d="M31802 4688 c7 -20 58 -23 58 -4 0 11 -10 16 -31 16 -20 0 -29 -4
-27 -12z"/>
<path d="M32020 4460 c0 -11 0 -23 -1 -27 0 -4 4 -9 10 -11 6 -2 11 10 11 27
0 17 -4 31 -10 31 -5 0 -10 -9 -10 -20z"/>
<path d="M22153 4886 l-17 -36 40 -34 39 -34 -55 2 -54 1 -68 -135 c-36 -74
-67 -143 -67 -153 -1 -10 13 -32 29 -49 36 -36 33 -44 -11 -29 -18 6 -37 11
-44 11 -13 0 -35 -42 -35 -68 1 -51 337 -197 480 -209 63 -5 67 -4 128 36 35
23 60 45 57 51 -8 13 94 80 111 73 8 -3 21 0 29 7 20 16 45 5 45 -20 0 -19
-10 -24 -37 -21 -7 1 -13 -5 -13 -14 0 -20 44 -20 64 1 41 41 -7 109 -60 85
-29 -13 -31 -10 -37 66 -3 35 0 54 8 57 7 2 11 15 9 28 -2 13 -6 45 -9 71 -7
55 -40 98 -120 157 -107 78 -282 168 -362 185 -30 6 -34 4 -50 -29z m50 -2 c9
-10 -4 -34 -19 -34 -16 0 -16 2 -8 24 6 17 16 20 27 10z m195 -79 c6 -5 -18
-64 -28 -70 -12 -7 -79 23 -116 53 -36 29 -40 42 -24 72 10 18 14 18 87 -16
42 -19 79 -37 81 -39z m108 -66 c62 -43 144 -118 144 -131 0 -22 -61 -2 -148
49 -53 31 -99 58 -101 59 -8 7 22 64 34 64 6 0 38 -18 71 -41z m-356 17 c0 -2
-30 -65 -66 -140 -39 -81 -71 -135 -77 -133 -16 6 -17 5 53 150 37 76 67 127
75 127 8 0 15 -2 15 -4z m143 -26 c31 -12 57 -25 57 -29 0 -23 -32 -81 -44
-81 -17 0 -136 87 -136 99 0 5 3 17 6 26 8 20 32 17 117 -15z m-48 -107 c49
-33 161 -84 235 -108 30 -10 58 -20 62 -22 4 -2 -10 -40 -32 -83 l-40 -79 -47
32 c-80 54 -233 126 -295 139 -32 7 -58 16 -58 20 0 5 18 45 40 89 l41 80 27
-21 c15 -11 45 -33 67 -47z m248 7 c64 -37 116 -60 135 -60 26 0 30 -4 35 -32
2 -18 3 -35 1 -37 -14 -15 -290 71 -317 98 -8 8 27 91 38 91 2 0 51 -27 108
-60z m-373 -154 c30 -8 67 -19 82 -25 l27 -10 -18 -41 c-10 -22 -20 -43 -23
-46 -7 -6 -120 60 -137 80 -12 15 -7 56 8 56 4 0 31 -6 61 -14z m464 -72 c-50
-109 -53 -114 -69 -108 -22 9 -19 26 22 109 30 60 42 75 60 75 22 0 21 -1 -13
-76z m70 -6 l7 -56 -46 -32 c-26 -18 -48 -30 -51 -27 -2 2 14 44 36 92 22 48
42 86 44 84 2 -2 7 -29 10 -61z m-285 -34 c44 -26 102 -66 128 -89 l48 -42
-33 -17 c-33 -17 -34 -17 -56 7 -12 13 -56 36 -97 52 -40 15 -91 36 -112 47
l-37 18 21 41 c25 49 28 49 138 -17z m-399 27 c0 -22 -13 -39 -26 -34 -10 4
-11 10 -3 24 10 20 29 26 29 10z m160 -41 c45 -23 47 -28 25 -70 l-15 -30 -80
40 c-44 22 -80 42 -80 45 0 2 5 15 11 28 10 22 14 23 55 16 24 -5 62 -18 84
-29z m195 -89 c140 -56 168 -102 49 -81 -65 12 -184 48 -197 60 -12 11 22 73
36 66 7 -2 57 -23 112 -45z"/>
<path d="M22274 4698 c3 -13 6 -26 6 -30 0 -8 30 -11 30 -4 0 3 -4 16 -10 30
-12 32 -35 35 -26 4z"/>
<path d="M22135 4417 c-25 -19 -3 -30 29 -16 14 7 26 16 26 21 0 13 -34 9 -55
-5z"/>
<path d="M36834 4273 c-10 -56 -20 -70 -56 -77 -61 -11 -152 -62 -195 -109
-50 -54 -73 -123 -73 -215 0 -58 6 -79 54 -181 29 -64 68 -153 86 -198 19 -46
37 -83 41 -83 12 0 282 258 312 297 103 138 23 321 -152 349 -83 13 -182 -52
-197 -131 -21 -115 79 -219 180 -185 45 15 76 53 76 95 0 47 -27 75 -78 82
-41 6 -42 5 -42 -25 0 -26 4 -31 28 -34 38 -4 44 -44 8 -58 -61 -23 -124 37
-112 106 10 51 56 84 117 84 90 0 145 -49 155 -137 19 -164 -210 -257 -343
-140 -49 43 -73 99 -73 172 0 134 88 227 243 258 l62 13 10 65 c13 78 11 89
-20 89 -20 0 -25 -7 -31 -37z m-48 -685 c2 -3 -14 -22 -36 -43 l-39 -38 -21
47 c-11 26 -20 51 -20 56 0 7 107 -14 116 -22z"/>
<path d="M27948 4165 c-179 -49 -312 -199 -340 -383 -47 -316 256 -588 567
-507 127 33 237 121 294 233 17 34 30 62 29 62 -2 0 -90 -31 -197 -69 -107
-39 -198 -68 -202 -65 -10 6 -71 115 -67 120 11 11 138 52 141 46 3 -4 8 -31
12 -59 4 -33 12 -53 20 -53 11 0 266 88 272 94 7 7 -23 66 -33 66 -6 0 -42
-11 -78 -25 -94 -35 -99 -34 -121 30 -10 30 -16 57 -13 60 3 3 36 16 74 29 64
22 69 25 67 51 -4 47 -16 50 -93 21 -39 -14 -75 -24 -80 -21 -5 3 -16 28 -25
56 -20 60 -22 58 75 90 36 12 68 23 72 26 8 4 -10 61 -22 68 -4 3 -47 -9 -95
-27 l-86 -31 6 -62 7 -61 -42 -17 c-46 -18 -43 -21 -60 62 -6 30 -7 58 -3 61
10 9 264 100 278 100 13 0 47 -93 37 -101 -4 -4 -42 -19 -85 -34 -83 -30 -81
-26 -56 -92 l8 -23 72 26 c39 14 77 23 84 20 15 -6 39 -71 32 -89 -3 -7 -37
-24 -76 -37 -39 -14 -71 -28 -71 -33 0 -18 30 -77 39 -77 6 0 47 13 91 30 l81
29 21 -47 21 -47 9 40 c5 22 8 79 5 127 -4 74 -10 99 -40 163 -95 199 -323
307 -529 250z m2 -301 c18 -30 28 -59 24 -64 -8 -7 -119 -50 -129 -50 -3 0
-19 106 -20 134 0 9 58 34 82 35 6 1 26 -24 43 -55z m-211 -69 c17 -30 31 -59
31 -64 0 -5 -20 -16 -45 -24 l-44 -16 -31 53 c-16 30 -30 58 -30 63 0 9 59 39
82 42 3 1 20 -24 37 -54z m401 16 c0 -21 -61 -48 -80 -36 -20 12 -9 32 23 43
48 15 57 14 57 -7z m-132 -51 c2 -10 -18 -22 -65 -39 -38 -13 -74 -26 -81 -29
-10 -3 -13 2 -10 19 2 19 15 28 63 46 66 24 88 25 93 3z m110 -38 c11 -23 10
-29 -5 -39 -25 -19 -30 -16 -42 19 -9 24 -8 34 1 40 22 13 33 9 46 -20z m-108
-17 c-10 -12 -9 -15 6 -16 11 0 14 -3 7 -6 -7 -2 -13 -9 -13 -14 0 -4 7 -6 15
-3 8 4 15 2 15 -4 0 -5 -9 -12 -21 -15 -15 -4 -23 1 -30 21 -12 31 -5 52 17
52 13 0 14 -3 4 -15z m-216 -12 c8 -20 1 -27 -44 -42 -30 -10 -37 -9 -48 6
-11 15 -7 19 30 35 54 21 55 21 62 1z m132 -18 c-3 -8 -1 -15 4 -15 5 0 6 -7
3 -17 -4 -11 -3 -14 5 -9 7 4 12 3 12 -2 0 -9 -30 -26 -35 -20 -1 2 -7 17 -13
35 -8 24 -8 33 1 37 22 9 29 6 23 -9z m239 -31 c0 -14 -16 -25 -67 -43 -68
-23 -98 -23 -98 2 0 13 135 68 155 63 6 -1 10 -11 10 -22z m-305 -31 c0 -29
-16 -38 -29 -16 -9 16 -10 16 -11 -4 0 -32 -22 -28 -43 7 -18 30 -12 41 11 18
9 -9 12 -7 12 10 0 26 15 29 29 5 9 -16 10 -15 11 7 0 20 2 22 10 10 5 -8 10
-25 10 -37z m93 -42 c4 -16 -7 -24 -65 -45 -81 -30 -94 -32 -102 -10 -8 22
-10 20 70 48 85 30 90 31 97 7z m10 -63 c3 -13 9 -46 12 -73 l7 -51 -51 -16
-51 -16 -34 61 c-19 34 -33 63 -31 65 4 5 127 51 136 51 4 1 9 -9 12 -21z"/>
<path d="M28090 3700 c0 -5 5 -10 10 -10 6 0 10 5 10 10 0 6 -4 10 -10 10 -5
0 -10 -4 -10 -10z"/>
<path d="M19155 3893 c-98 -23 -295 -79 -317 -90 -39 -19 -59 -64 -65 -149 -7
-85 3 -104 51 -104 30 0 32 -3 80 -123 63 -157 104 -243 123 -258 22 -19 77
-14 179 15 91 25 134 56 134 94 0 9 -9 100 -20 202 -19 175 -19 186 -2 197 39
28 44 36 37 62 -9 38 -41 69 -57 53 -9 -9 -9 -18 1 -38 6 -15 9 -29 6 -32 -10
-11 -480 -131 -486 -124 -14 15 7 132 26 152 23 22 299 100 356 100 42 0 59
24 29 40 -19 10 -40 11 -75 3z m105 -276 c0 -27 -5 -35 -31 -44 -38 -15 -34
-38 7 -38 27 -1 30 -4 38 -53 5 -29 6 -55 3 -58 -6 -7 -257 -74 -275 -74 -16
0 -56 86 -47 100 3 6 11 10 17 10 6 0 42 9 79 20 55 17 69 25 69 40 0 25 -8
25 -95 0 -38 -11 -77 -20 -86 -20 -15 0 -47 55 -38 64 2 2 42 13 89 25 47 11
123 32 170 45 47 13 88 22 93 19 4 -2 7 -19 7 -36z m30 -302 c0 -64 4 -61
-136 -96 -69 -18 -87 -19 -100 -9 -18 16 -47 81 -38 89 7 7 231 68 257 70 14
1 17 -8 17 -54z"/>
<path d="M7718 3579 c-57 -13 -153 -65 -200 -107 -147 -132 -191 -356 -104
-537 105 -223 367 -322 594 -225 28 12 52 25 52 29 0 3 -88 37 -196 75 -192
68 -195 69 -190 95 3 14 8 44 12 66 4 22 8 43 10 46 3 6 133 -36 142 -45 2 -2
-11 -27 -28 -56 -17 -29 -29 -54 -28 -56 2 -1 66 -25 141 -52 l138 -50 14 36
c9 19 14 36 13 37 -2 1 -39 14 -83 29 -44 15 -84 32 -89 36 -9 9 20 106 34
115 4 2 40 -7 81 -20 40 -14 77 -21 81 -17 5 5 10 21 11 36 2 25 -4 30 -63 52
-36 14 -69 29 -74 34 -11 11 24 110 40 110 7 0 45 -12 85 -26 74 -27 78 -26
96 17 12 27 11 27 -74 58 -47 17 -90 31 -97 31 -6 0 -24 -23 -39 -50 -30 -54
-29 -53 -95 -29 l-23 9 32 60 c17 33 36 60 41 60 5 0 70 -21 143 -47 85 -30
135 -53 135 -62 0 -29 -24 -91 -35 -91 -6 0 -45 11 -85 25 -40 14 -76 25 -80
25 -9 0 -30 -71 -24 -81 2 -4 34 -17 70 -29 36 -12 68 -28 71 -36 7 -18 -16
-84 -31 -90 -10 -4 -77 16 -138 41 -13 5 -21 -2 -33 -31 -9 -21 -14 -43 -11
-49 2 -6 30 -19 62 -29 33 -10 71 -25 86 -32 27 -14 27 -14 12 -56 -8 -22 -12
-43 -10 -46 3 -2 30 19 60 48 105 99 160 260 138 397 -22 134 -119 276 -230
336 -94 51 -233 70 -334 46z m-88 -139 c0 -11 -5 -42 -11 -70 -12 -55 -10 -54
-78 -28 -22 8 -23 11 -17 70 4 34 9 66 12 69 2 4 25 1 49 -8 32 -10 45 -20 45
-33z m171 -42 c44 -13 43 -9 28 -94 l-11 -63 -66 25 c-36 13 -68 26 -70 29 -6
6 62 115 72 115 5 0 26 -5 47 -12z m-235 -84 c33 -13 41 -20 37 -35 -6 -20
-12 -20 -70 2 -14 5 -23 17 -23 29 0 24 3 24 56 4z m244 -110 l0 -24 -72 27
c-86 31 -95 37 -80 56 10 12 23 10 82 -11 60 -21 70 -28 70 -48z m-260 29 c0
-13 3 -14 12 -5 18 18 28 15 28 -10 0 -21 0 -21 15 -2 20 26 19 0 -1 -31 -20
-31 -34 -32 -34 -3 0 17 -3 19 -12 10 -20 -20 -28 -14 -28 23 0 19 5 35 10 35
6 0 10 -8 10 -17z m146 -51 c-15 -3 -16 -6 -5 -13 11 -7 11 -9 -3 -9 -21 0
-24 -16 -5 -23 7 -3 5 -6 -6 -6 -23 -1 -30 19 -18 53 10 24 13 26 33 14 21
-11 22 -12 4 -16z m223 7 c31 -11 41 -32 21 -44 -15 -9 -80 14 -80 29 0 27 13
31 59 15z m-129 -30 c0 -5 -8 -9 -17 -9 -15 0 -16 -2 -3 -10 13 -8 12 -10 -4
-10 -15 0 -16 -3 -6 -15 10 -12 10 -15 -3 -15 -23 0 -28 14 -16 48 8 23 15 29
30 25 10 -3 19 -9 19 -14z m-145 -46 c12 -7 13 -12 3 -26 -12 -16 -18 -16 -90
9 -58 19 -78 30 -78 43 0 10 3 20 6 23 6 6 128 -32 159 -49z m228 19 c3 -4 3
-19 0 -35 -4 -20 -11 -27 -27 -27 -32 0 -36 7 -24 41 9 27 40 40 51 21z m-315
-54 c34 -12 62 -25 62 -30 0 -14 -61 -118 -69 -118 -4 0 -28 7 -52 15 l-45 16
9 69 c6 39 15 70 21 70 6 0 39 -10 74 -22z m234 -15 c77 -28 89 -38 67 -60 -8
-8 -31 -4 -85 15 -62 23 -74 30 -74 49 0 13 3 23 7 23 4 0 42 -12 85 -27z"/>
<path d="M890 3353 c-28 -11 -164 -106 -187 -131 -13 -14 -23 -35 -23 -47 0
-13 38 -100 85 -194 47 -95 85 -176 85 -182 0 -6 -7 -17 -15 -25 -8 -9 -15
-23 -15 -32 0 -21 46 -72 65 -72 25 0 28 21 6 44 -12 12 -21 25 -21 28 0 4 55
44 122 90 67 45 160 109 207 141 46 31 87 57 91 57 4 0 15 -28 24 -63 12 -45
14 -70 8 -88 -11 -27 -257 -201 -312 -220 -32 -12 -40 -36 -14 -46 23 -9 71
17 210 113 143 98 164 121 164 176 0 50 -26 143 -45 158 -20 16 -48 19 -63 7
-11 -9 -47 23 -160 141 -149 155 -162 164 -212 145z m89 -77 l32 -33 -120 -82
-121 -82 -22 46 c-17 35 -20 50 -12 63 18 29 175 130 194 125 10 -3 32 -19 49
-37z m98 -108 c18 -18 33 -37 33 -44 0 -6 -31 -33 -70 -59 -74 -50 -75 -52
-61 -74 8 -12 25 -4 90 39 l82 53 25 -24 c23 -22 24 -24 7 -40 -36 -34 -276
-190 -287 -186 -6 2 -15 16 -20 30 -8 23 -6 30 12 43 12 8 22 22 22 30 0 13
-8 14 -37 9 -37 -6 -39 -5 -58 37 -10 24 -19 46 -20 50 0 9 226 167 240 167 5
1 24 -13 42 -31z"/>
<path d="M41342 3195 c-12 -9 -49 -55 -82 -102 -90 -130 -92 -124 85 -303 140
-141 145 -148 135 -174 -13 -35 0 -59 39 -76 54 -22 83 10 33 36 -13 6 -25 14
-28 17 -8 7 283 417 296 417 14 0 80 -112 80 -136 0 -25 -191 -299 -220 -314
-24 -13 -26 -38 -4 -47 22 -8 64 36 161 172 105 148 117 173 103 223 -12 45
-94 152 -116 152 -9 0 -28 -7 -44 -16 -26 -16 -29 -16 -91 18 -283 155 -303
163 -347 133z m106 -55 l33 -20 -61 -88 c-33 -48 -71 -100 -85 -117 l-25 -30
-35 40 c-20 21 -34 45 -33 52 2 7 30 51 63 98 67 94 83 102 143 65z m132 -70
c22 -11 40 -25 40 -30 0 -5 -20 -38 -45 -73 -25 -36 -45 -72 -45 -81 0 -29 34
-17 60 21 80 117 77 115 111 97 19 -9 29 -21 25 -29 -12 -31 -200 -285 -211
-285 -6 0 -20 9 -30 20 -18 20 -18 22 -2 49 14 25 15 30 3 40 -11 10 -19 7
-35 -11 l-21 -22 -42 41 -42 42 38 53 c21 29 59 83 84 120 26 38 53 68 60 68
7 0 31 -9 52 -20z"/>
<path d="M29890 2627 c-58 -19 -279 -140 -318 -173 l-37 -32 2 -80 c2 -111 22
-146 78 -136 29 5 34 0 110 -107 173 -244 167 -240 291 -177 115 58 154 91
154 130 0 17 -27 110 -60 206 l-60 175 20 22 c11 12 20 30 20 41 0 24 -35 64
-55 64 -22 0 -28 -20 -11 -39 9 -10 16 -22 16 -27 0 -9 -407 -234 -436 -242
-14 -4 -24 43 -24 109 0 41 4 50 28 67 40 29 259 143 301 158 23 8 36 18 36
30 0 23 -12 25 -55 11z m131 -249 c9 -21 9 -33 2 -35 -28 -10 -46 -31 -40 -48
4 -9 13 -15 20 -12 6 3 19 8 28 12 14 5 21 -5 34 -46 l18 -53 -23 -15 c-13 -9
-72 -42 -131 -73 l-108 -57 -31 39 c-18 22 -30 45 -28 50 2 6 35 28 73 49 39
20 71 45 73 54 5 27 -26 20 -109 -23 l-77 -40 -16 25 c-9 13 -16 28 -16 33 0
7 296 171 311 172 4 0 13 -14 20 -32z m97 -286 c17 -53 16 -55 -87 -112 -105
-57 -113 -58 -150 -18 -17 18 -31 38 -31 43 0 13 220 134 239 132 8 -1 21 -22
29 -45z"/>
<path d="M3545 2238 c-2 -7 -22 -161 -44 -343 -28 -239 -36 -334 -29 -343 27
-32 38 18 77 347 22 184 38 339 35 343 -8 12 -34 9 -39 -4z"/>
<path d="M3673 2166 c-36 -30 -49 -71 -64 -201 -26 -222 -14 -254 104 -279 22
-5 27 -12 27 -37 0 -96 98 -169 194 -145 41 10 95 64 106 107 7 27 20 43 39
53 34 18 45 53 66 226 18 146 19 204 5 230 -11 20 -55 37 -110 42 -29 2 -35 0
-38 -18 -3 -19 3 -23 42 -28 60 -9 77 -27 71 -74 -3 -20 -12 -98 -21 -172 -9
-74 -20 -143 -25 -152 -11 -21 -51 -22 -184 -5 l-89 12 3 48 c2 41 0 47 -17
47 -20 0 -32 -25 -32 -69 0 -21 -3 -23 -37 -17 -46 8 -73 38 -73 80 0 35 27
246 36 282 8 30 22 41 64 48 56 10 59 4 44 -114 -14 -105 -10 -128 19 -117 10
4 17 29 21 79 12 118 19 143 42 141 26 -4 48 12 41 30 -6 16 -70 27 -153 27
-41 0 -59 -5 -81 -24z m323 -518 c11 -12 -16 -66 -43 -84 -36 -23 -88 -22
-120 2 -27 20 -55 78 -47 99 5 11 197 -4 210 -17z"/>
<path d="M43683 1828 c-170 -205 -186 -231 -191 -298 -10 -141 77 -234 219
-235 54 0 72 4 102 25 74 51 98 145 56 220 -24 42 -82 80 -123 80 -56 0 -111
-45 -122 -98 -9 -44 38 -92 90 -92 33 0 36 2 36 30 0 25 -4 30 -24 30 -13 0
-30 7 -37 16 -11 14 -10 19 11 36 48 39 130 -7 130 -73 0 -71 -50 -114 -129
-113 -95 1 -157 72 -149 169 9 107 94 170 218 163 57 -3 77 -9 112 -33 92 -66
120 -198 63 -303 -37 -68 -91 -111 -174 -139 l-66 -22 -3 -75 c-3 -75 -2 -76
21 -76 26 0 37 21 37 73 0 25 8 31 65 57 136 61 205 158 205 290 0 89 -13 139
-44 177 -13 15 -60 93 -106 173 -45 80 -84 146 -85 148 -1 1 -51 -57 -112
-130z m131 -25 c15 -25 24 -48 22 -50 -2 -2 -31 -1 -65 3 l-60 7 36 43 c19 24
37 44 38 44 2 0 15 -21 29 -47z"/>
<path d="M38717 1644 c-4 -4 -7 -28 -7 -53 l0 -46 -20 25 c-11 14 -20 33 -20
43 0 10 -6 20 -14 23 -7 3 -87 -3 -177 -13 l-164 -18 -9 -47 c-10 -57 -21 -61
-33 -12 -11 47 -32 62 -70 48 -27 -9 -28 -13 -31 -79 -6 -136 46 -389 98 -472
21 -35 132 -98 156 -89 19 7 124 -41 124 -58 0 -7 9 -16 20 -19 24 -6 27 -45
4 -54 -11 -4 -23 2 -33 16 -15 20 -31 20 -31 0 0 -32 73 -52 98 -27 19 19 14
66 -8 80 -11 7 -20 16 -20 20 0 12 92 73 107 70 24 -5 117 77 131 116 31 86
30 376 -1 497 -13 49 -14 50 -53 53 -22 2 -43 0 -47 -4z m63 -29 c0 -8 -9 -15
-20 -15 -20 0 -26 11 -13 23 12 13 33 7 33 -8z m-140 -18 c0 -10 -34 -17 -132
-26 -73 -7 -141 -15 -150 -17 -12 -4 -18 0 -18 10 0 9 1 16 3 17 7 3 228 27
260 28 25 1 37 -3 37 -12z m-400 -42 c0 -8 -9 -15 -20 -15 -11 0 -20 7 -20 15
0 8 9 15 20 15 11 0 20 -7 20 -15z m565 -42 c14 -122 15 -118 -32 -121 l-43
-3 -2 38 c-3 48 1 114 7 131 2 6 18 12 34 12 29 0 30 -2 36 -57z m-121 -5 c8
-29 18 -70 22 -90 5 -33 4 -38 -14 -38 -11 0 -34 -3 -51 -6 l-31 -6 0 58 c0
33 3 76 6 97 6 30 11 37 30 37 20 0 26 -8 38 -52z m-98 -80 c0 -106 20 -249
41 -304 5 -13 -19 -20 -113 -29 l-61 -7 -6 154 c-3 116 -10 168 -25 218 -12
35 -19 67 -16 70 5 5 90 16 149 19 l30 1 1 -122z m-207 76 c11 -26 42 -147 38
-150 -1 0 -23 -4 -49 -7 l-46 -6 -7 40 c-6 37 1 124 12 142 10 16 41 5 52 -19z
m-109 -30 c11 -25 20 -65 20 -89 0 -43 -1 -44 -35 -51 -20 -3 -38 -4 -42 -1
-3 3 -8 44 -12 91 -7 89 -6 91 37 95 7 0 22 -20 32 -45z m547 -210 c-7 -99
-24 -184 -38 -184 -18 0 -27 40 -33 157 l-6 122 32 3 c18 2 37 2 42 -1 5 -2 6
-45 3 -97z m-103 70 c3 -9 6 -60 6 -115 0 -71 5 -109 16 -130 16 -33 10 -50
-27 -70 -16 -8 -21 1 -44 72 -26 84 -56 245 -47 254 3 3 24 5 48 5 29 0 44 -5
48 -16z m-288 -71 c7 -55 0 -189 -12 -251 l-6 -31 -34 17 c-26 12 -33 20 -27
31 11 24 8 86 -11 185 -9 48 -13 92 -10 97 3 5 25 9 49 9 l44 0 7 -57z m-126
20 c0 -16 7 -67 16 -116 15 -83 13 -137 -5 -137 -20 0 -91 201 -91 259 0 18 6
21 40 21 37 0 40 -2 40 -27z m344 -219 c4 -9 5 -18 3 -20 -3 -3 -164 -24 -189
-24 -20 0 -22 8 -8 30 5 9 32 17 67 21 104 11 120 10 127 -7z m-19 -78 c-59
-48 -67 -50 -124 -26 -28 13 -49 25 -46 29 7 6 95 17 160 19 l40 2 -30 -24z"/>
<path d="M38652 1448 c-14 -14 -16 -38 -4 -38 12 0 32 23 32 37 0 16 -12 17
-28 1z"/>
<path d="M38330 1415 c0 -15 38 -40 47 -31 7 7 -26 46 -39 46 -4 0 -8 -7 -8
-15z"/>
<path d="M23400 1443 c-14 -3 -96 -27 -183 -54 -168 -53 -197 -71 -197 -122 0
-51 21 -107 41 -107 24 0 28 17 12 62 -20 58 -7 71 94 103 48 15 121 38 162
51 85 28 104 29 120 10 12 -14 81 -211 81 -231 0 -7 -18 -19 -40 -28 -51 -20
-57 -52 -7 -45 17 3 40 8 49 12 13 6 19 1 26 -26 20 -74 -4 -94 -178 -147
-152 -45 -157 -45 -191 -12 -52 52 -42 66 71 101 101 31 121 43 101 63 -8 8
-34 4 -98 -15 -49 -14 -96 -29 -105 -33 -13 -5 -20 0 -27 18 -12 31 -23 38
-41 27 -11 -7 -10 -20 8 -77 55 -171 91 -182 334 -103 163 53 183 73 174 165
l-6 60 33 15 c73 34 101 141 55 210 -39 57 -72 75 -137 75 -32 0 -64 5 -72 11
-19 16 -49 22 -79 17z m209 -88 c36 -18 63 -73 55 -113 -7 -34 -56 -86 -75
-80 -11 4 -69 167 -69 196 0 17 54 15 89 -3z"/>
<path d="M10512 1177 c-27 -29 -27 -32 -2 -64 11 -14 20 -30 20 -35 0 -12 -40
0 -61 18 -8 8 -21 14 -28 14 -12 0 -209 -163 -244 -203 -16 -18 -16 -22 -2
-43 9 -13 13 -24 10 -24 -3 0 -1 -9 5 -20 14 -27 4 -25 -36 5 -40 31 -45 31
-74 0 l-23 -25 22 -42 c48 -93 243 -289 343 -343 42 -23 54 -25 113 -19 44 5
73 13 83 24 19 20 114 36 134 24 7 -5 26 -7 41 -5 25 2 28 0 25 -21 -2 -19 -8
-23 -36 -20 -34 2 -40 -6 -20 -26 29 -29 88 1 88 45 0 25 -30 53 -58 53 -26 0
-26 0 -5 67 9 29 22 53 29 53 13 0 54 110 54 144 0 95 -274 466 -343 466 -7 0
-23 -10 -35 -23z m52 -16 c3 -5 -1 -14 -10 -21 -11 -10 -18 -10 -27 -1 -9 9
-9 14 3 21 19 12 27 12 34 1z m91 -87 l56 -67 -27 -28 -28 -29 -34 32 c-19 18
-44 53 -55 77 l-20 45 23 18 c12 10 24 18 25 18 2 0 29 -30 60 -66z m-201 -3
c6 -10 -207 -196 -224 -196 -6 0 -11 4 -11 9 -1 9 211 195 223 196 4 0 9 -4
12 -9z m118 -78 l60 -58 -38 -33 -39 -33 -21 27 c-39 48 -73 128 -62 141 19
23 39 14 100 -44z m-103 -41 c31 -61 154 -208 215 -258 l38 -30 -59 -50 c-32
-28 -63 -53 -69 -57 -7 -4 -30 21 -56 61 -61 91 -141 180 -199 222 -26 19 -48
37 -48 40 1 4 140 128 146 129 2 1 16 -25 32 -57z m350 -114 c53 -104 55 -145
3 -100 -11 9 -50 57 -86 105 l-66 88 28 24 27 25 27 -31 c14 -17 45 -67 67
-111z m-122 14 c23 -31 56 -76 73 -99 16 -24 41 -45 55 -49 27 -7 30 -19 15
-59 l-10 -26 -47 32 c-58 41 -203 178 -203 193 0 10 59 66 70 65 3 0 24 -25
47 -57z m-358 -44 c34 -27 61 -54 61 -60 0 -7 -15 -25 -34 -40 l-34 -27 -19
22 c-33 37 -73 101 -73 117 0 18 20 42 31 38 4 -2 35 -24 68 -50z m-193 -17
c-10 -16 -36 -13 -36 3 0 17 21 27 34 16 4 -5 5 -13 2 -19z m111 -67 l54 -56
-27 -29 c-16 -16 -31 -28 -35 -27 -13 6 -109 123 -109 135 0 13 28 32 48 33 8
0 38 -25 69 -56z m227 -77 c31 -40 72 -104 92 -142 l36 -70 -24 -6 c-47 -14
-58 -10 -58 17 0 20 -23 50 -90 119 l-91 92 36 32 c20 17 38 31 40 31 3 0 29
-33 59 -73z m19 -199 c3 -10 1 -21 -4 -24 -14 -8 -89 39 -164 103 l-66 55 27
29 28 29 87 -86 c48 -48 90 -95 92 -106z m265 180 c8 -8 3 -17 -22 -37 -19
-14 -55 -44 -81 -65 -38 -32 -48 -37 -56 -25 -13 20 -11 22 61 84 68 58 79 62
98 43z m15 -85 c-9 -27 -19 -51 -22 -55 -8 -9 -112 -30 -118 -24 -5 4 138 126
148 126 4 0 1 -21 -8 -47z"/>
<path d="M10550 951 c0 -17 5 -31 10 -31 6 0 10 9 10 20 0 11 0 23 1 27 0 4
-4 9 -10 11 -6 2 -11 -10 -11 -27z"/>
<path d="M10300 750 c0 -5 9 -10 20 -10 11 0 23 0 27 -1 4 0 9 4 11 10 2 6
-10 11 -27 11 -17 0 -31 -4 -31 -10z"/>
<path d="M27770 1164 c-244 -43 -306 -59 -345 -88 -73 -56 -111 -152 -94 -241
12 -63 32 -97 84 -143 58 -51 116 -66 187 -47 58 15 94 45 119 100 24 53 24
99 -2 153 -41 84 -148 105 -211 42 -42 -43 -34 -104 22 -147 22 -18 28 -16 46
12 16 25 16 27 -5 46 -27 26 -24 53 8 57 74 11 119 -89 69 -153 -52 -66 -134
-65 -201 2 -82 82 -71 194 28 269 98 75 270 19 338 -110 26 -50 28 -143 4
-198 -24 -56 -91 -123 -149 -148 -92 -40 -176 -30 -324 36 -16 7 -124 -113
-118 -131 13 -32 45 -28 85 11 l38 37 77 -23 c99 -29 216 -25 283 9 90 47 190
181 191 255 1 17 18 122 39 234 21 111 35 202 32 201 -3 0 -94 -16 -201 -35z
m120 -61 c-1 -5 -6 -34 -13 -66 l-12 -58 -54 55 -54 55 39 6 c21 4 44 8 49 10
19 6 45 5 45 -2z"/>
<path d="M23476 849 c-176 -54 -322 -101 -324 -104 -8 -8 7 -35 20 -35 7 0
157 44 333 99 271 83 320 101 320 117 0 10 -7 20 -15 21 -8 1 -159 -43 -334
-98z"/>
<path d="M15368 745 c-81 -30 -184 -121 -212 -188 -7 -18 -30 -84 -50 -147
-20 -63 -52 -157 -71 -209 l-34 -94 252 5 c291 6 310 10 381 89 74 82 84 182
28 284 -55 101 -169 142 -266 95 -172 -83 -109 -348 74 -309 45 10 70 41 70
89 0 39 -31 90 -54 90 -7 0 -21 -9 -31 -20 -17 -19 -17 -21 -1 -39 23 -25 17
-55 -12 -59 -30 -5 -82 48 -82 83 0 95 109 146 193 90 76 -52 99 -156 51 -231
-91 -140 -292 -117 -376 45 -90 172 46 372 251 371 67 -1 114 -16 192 -65 l58
-36 66 51 c36 29 65 55 65 59 0 5 -9 16 -20 26 -20 18 -21 17 -66 -15 l-45
-32 -67 30 c-37 17 -85 35 -107 41 -54 15 -142 13 -187 -4z m-179 -500 c22
-30 41 -57 41 -60 0 -3 -30 -5 -66 -5 -59 0 -65 2 -59 18 4 9 14 36 22 60 8
23 16 42 18 42 1 0 21 -25 44 -55z"/>
</g>
</svg>
